<svg width="11" height="16" viewBox="0 0 11 16" fill="none" xmlns="http://www.w3.org/2000/svg">
<path d="M6.79021 8.00694L1.32821 13.9539C1.10446 14.1803 0.978966 14.4857 0.978966 14.8039C0.978966 15.1222 1.10446 15.4276 1.32821 15.6539C1.43827 15.7656 1.56944 15.8543 1.71407 15.9148C1.8587 15.9753 2.01393 16.0065 2.17071 16.0065C2.3275 16.0065 2.48272 15.9753 2.62735 15.9148C2.77199 15.8543 2.90315 15.7656 3.01321 15.6539L9.67321 8.85394C9.89624 8.62724 10.0212 8.32196 10.0212 8.00394C10.0212 7.68592 9.89624 7.38064 9.67321 7.15394L3.01321 0.353941C2.90315 0.242283 2.77199 0.153617 2.62735 0.0930977C2.48272 0.0325785 2.3275 0.00141144 2.17071 0.00141144C2.01393 0.00141144 1.8587 0.0325785 1.71407 0.0930977C1.56944 0.153617 1.43827 0.242283 1.32821 0.353941C1.10446 0.580263 0.978966 0.885685 0.978966 1.20394C0.978966 1.5222 1.10446 1.82762 1.32821 2.05394L6.79021 8.00694Z" fill="#818181"/>
</svg>
