<svg width="100" height="101" viewBox="0 0 100 101" fill="none" xmlns="http://www.w3.org/2000/svg">
<path d="M12.5 46.3333H45.8333V13H12.5V46.3333ZM20.8333 21.3333H37.5V38H20.8333V21.3333ZM12.5 88H45.8333V54.6667H12.5V88ZM20.8333 63H37.5V79.6667H20.8333V63ZM54.1667 13V46.3333H87.5V13H54.1667ZM79.1667 38H62.5V21.3333H79.1667V38ZM54.2083 54.6667H62.5417V63H54.2083V54.6667ZM62.5417 63H70.875V71.3333H62.5417V63ZM54.2083 71.3333H62.5417V79.6667H54.2083V71.3333ZM70.875 71.3333H79.2083V79.6667H70.875V71.3333ZM79.2083 79.6667H87.5417V88H79.2083V79.6667ZM62.5417 79.6667H70.875V88H62.5417V79.6667ZM70.875 54.6667H79.2083V63H70.875V54.6667ZM79.2083 63H87.5417V71.3333H79.2083V63Z" fill="#555555"/>
</svg>
