<svg width="38" height="38" viewBox="0 0 38 38" fill="none" xmlns="http://www.w3.org/2000/svg">
<g clip-path="url(#clip0_107_954)">
<path d="M19 0C20.7441 0 22.4264 0.222656 24.0469 0.667969C25.6673 1.11328 27.1764 1.75651 28.5742 2.59766C29.972 3.4388 31.2523 4.42839 32.415 5.56641C33.5778 6.70443 34.5736 7.9847 35.4023 9.40723C36.2311 10.8298 36.8682 12.3451 37.3135 13.9531C37.7588 15.5612 37.9876 17.2435 38 19C38 20.7441 37.7773 22.4264 37.332 24.0469C36.8867 25.6673 36.2435 27.1764 35.4023 28.5742C34.5612 29.972 33.5716 31.2523 32.4336 32.415C31.2956 33.5778 30.0153 34.5736 28.5928 35.4023C27.1702 36.2311 25.6549 36.8682 24.0469 37.3135C22.4388 37.7588 20.7565 37.9876 19 38C17.2559 38 15.5736 37.7773 13.9531 37.332C12.3327 36.8867 10.8236 36.2435 9.42578 35.4023C8.028 34.5612 6.74772 33.5716 5.58496 32.4336C4.4222 31.2956 3.42643 30.0153 2.59766 28.5928C1.76888 27.1702 1.13184 25.6549 0.686523 24.0469C0.241211 22.4388 0.0123698 20.7565 0 19C0 17.2559 0.222656 15.5736 0.667969 13.9531C1.11328 12.3327 1.75651 10.8236 2.59766 9.42578C3.4388 8.028 4.42839 6.74772 5.56641 5.58496C6.70443 4.4222 7.9847 3.42643 9.40723 2.59766C10.8298 1.76888 12.3451 1.13184 13.9531 0.686523C15.5612 0.241211 17.2435 0.0123698 19 0ZM30.1885 12.71L27.665 10.1865L15.4375 22.4141L10.335 17.3115L7.81152 19.835L15.4375 27.4609L30.1885 12.71Z" fill="black"/>
</g>
<defs>
<clipPath id="clip0_107_954">
<rect width="38" height="38" fill="white"/>
</clipPath>
</defs>
</svg>
