<svg width="161" height="32" viewBox="0 0 161 32" fill="none" xmlns="http://www.w3.org/2000/svg">
<rect x="0.5" width="160" height="32" rx="12" fill="#1C55A9"/>
<path d="M18.325 26L19.95 18.975L14.5 14.25L21.7 13.625L24.5 7L27.3 13.625L34.5 14.25L29.05 18.975L30.675 26L24.5 22.275L18.325 26Z" fill="#E7E7E7"/>
<path d="M46.325 26L47.95 18.975L42.5 14.25L49.7 13.625L52.5 7L55.3 13.625L62.5 14.25L57.05 18.975L58.675 26L52.5 22.275L46.325 26Z" fill="#E7E7E7"/>
<path d="M74.325 26L75.95 18.975L70.5 14.25L77.7 13.625L80.5 7L83.3 13.625L90.5 14.25L85.05 18.975L86.675 26L80.5 22.275L74.325 26Z" fill="#E7E7E7"/>
<path d="M108.5 12.125V19.925L111.65 21.85L110.825 18.25L113.6 15.85L109.95 15.525L108.5 12.125ZM102.325 26L103.95 18.975L98.5 14.25L105.7 13.625L108.5 7L111.3 13.625L118.5 14.25L113.05 18.975L114.675 26L108.5 22.275L102.325 26Z" fill="#E7E7E7"/>
<path d="M133.35 21.825L136.5 19.925L139.65 21.85L138.825 18.25L141.6 15.85L137.95 15.525L136.5 12.125L135.05 15.5L131.4 15.825L134.175 18.25L133.35 21.825ZM130.325 26L131.95 18.975L126.5 14.25L133.7 13.625L136.5 7L139.3 13.625L146.5 14.25L141.05 18.975L142.675 26L136.5 22.275L130.325 26Z" fill="#E7E7E7"/>
</svg>
