<svg width="24" height="32" viewBox="0 0 24 32" fill="none" xmlns="http://www.w3.org/2000/svg">
<path d="M13.4812 31.2C16.6875 27.1875 24 17.4625 24 12C24 5.375 18.625 0 12 0C5.375 0 0 5.375 0 12C0 17.4625 7.3125 27.1875 10.5188 31.2C11.2875 32.1562 12.7125 32.1562 13.4812 31.2ZM12 8C13.0609 8 14.0783 8.42143 14.8284 9.17157C15.5786 9.92172 16 10.9391 16 12C16 13.0609 15.5786 14.0783 14.8284 14.8284C14.0783 15.5786 13.0609 16 12 16C10.9391 16 9.92172 15.5786 9.17157 14.8284C8.42143 14.0783 8 13.0609 8 12C8 10.9391 8.42143 9.92172 9.17157 9.17157C9.92172 8.42143 10.9391 8 12 8Z" fill="#565656"/>
</svg>
