<svg width="48" height="48" viewBox="0 0 48 48" fill="none" xmlns="http://www.w3.org/2000/svg">
<rect width="48" height="48" rx="12" fill="white"/>
<path d="M15 30C15 30.5304 15.2107 31.0391 15.5858 31.4142C15.9609 31.7893 16.4696 32 17 32C17.5304 32 18.0391 31.7893 18.4142 31.4142C18.7893 31.0391 19 30.5304 19 30C19 29.4696 18.7893 28.9609 18.4142 28.5858C18.0391 28.2107 17.5304 28 17 28C16.4696 28 15.9609 28.2107 15.5858 28.5858C15.2107 28.9609 15 29.4696 15 30ZM29 18C29 18.5304 29.2107 19.0391 29.5858 19.4142C29.9609 19.7893 30.4696 20 31 20C31.5304 20 32.0391 19.7893 32.4142 19.4142C32.7893 19.0391 33 18.5304 33 18C33 17.4696 32.7893 16.9609 32.4142 16.5858C32.0391 16.2107 31.5304 16 31 16C30.4696 16 29.9609 16.2107 29.5858 16.5858C29.2107 16.9609 29 17.4696 29 18Z" stroke="#848484" stroke-width="2" stroke-linecap="round" stroke-linejoin="round"/>
<path d="M31 20V25C31 26.3261 30.4732 27.5979 29.5355 28.5355C28.5979 29.4732 27.3261 30 26 30H23M23 30L26 27M23 30L26 33M17 28V23C17 21.6739 17.5268 20.4021 18.4645 19.4645C19.4021 18.5268 20.6739 18 22 18H25M25 18L22 15M25 18L22 21" stroke="#848484" stroke-width="2" stroke-linecap="round" stroke-linejoin="round"/>
</svg>
