<svg width="24" height="24" viewBox="0 0 24 24" fill="none" xmlns="http://www.w3.org/2000/svg">
<g clip-path="url(#clip0_107_655)">
<path d="M18.8887 21.1012L19.1329 21.1196L19.8 18.3334C19.7089 18.3784 19.6155 18.4237 19.5195 18.468L18.8887 21.1005" fill="#243438"/>
<path d="M17.7338 19.1325L17.733 19.1303L17.7383 19.1651H17.166L17.01 19.8165C17.3254 20.0156 17.6599 20.4244 18.0015 21.1425L18.8618 21.2085L18.8876 21.0998L19.5188 18.4673C18.9417 18.7345 18.3449 18.9567 17.7338 19.1325Z" fill="#969492"/>
<path d="M10.4832 23.355L10.8015 23.3783C11.0367 22.9395 11.4702 22.2458 12.0289 21.8783C11.3554 22.0624 10.8087 22.803 10.4832 23.355Z" fill="#243438"/>
<path d="M17.7413 19.1663L17.736 19.1314L17.4229 17.0944L17.412 17.0183C17.3862 17.0033 17.3592 16.9894 17.3325 16.9751C14.4282 15.3476 10.6148 16.1359 8.7949 16.6695L6.09415 19.0523L6.00153 19.1663H16.7693L15.6694 23.7499L16.0628 23.7803L17.0127 19.818L17.1687 19.1666L17.7413 19.1663Z" fill="#243438"/>
<path d="M7.86487 19.1663L9.40124 23.5163L10.3515 23.5894C10.3905 23.517 10.4347 23.4375 10.4835 23.3546C10.809 22.8023 11.3557 22.062 12.0296 21.8779C12.7241 21.6885 13.5532 22.089 14.4127 23.8988L15.6116 23.9903L15.6682 23.7495L16.7681 19.1659L7.86487 19.1663Z" fill="#B3B3B3"/>
<path d="M18.2603 10.263C18.2013 10.2744 18.1419 10.2831 18.0821 10.2889L18.4841 11.601C18.6626 11.6602 18.81 11.6179 18.9233 11.5455C19.095 11.4367 19.1876 11.2575 19.1876 11.2575L18.8655 10.152C18.8655 10.152 14.451 10.0639 13.1614 10.2611H18.2603V10.263Z" fill="#243438"/>
<path d="M17.6775 11.9423C17.8605 11.9423 18.7807 11.8185 18.9236 11.5455C18.8598 11.5883 18.7868 11.6156 18.7106 11.6252C18.6344 11.6348 18.5569 11.6265 18.4845 11.601L18.0825 10.2889C18.1005 10.2889 18.1699 10.2788 18.2606 10.263V10.2607H13.1464L13.5469 11.7525L17.6794 11.9423M5.51848 0.43425C6.07048 1.15988 7.02598 3.20925 8.44423 8.85975L11.7315 7.91062C11.7315 7.91062 10.6474 2.66813 9.04911 1.05038C9.51711 1.12425 9.87073 1.21913 10.1385 1.323C7.81011 -0.0329998 4.59486 -0.0254998 3.66748 0.00937515C3.95998 0.0236252 4.27611 0.138 4.61173 0.39975C4.77636 0.3675 5.10823 0.387 5.51848 0.43425ZM22.0399 14.4109C20.4229 16.2484 17.5916 16.914 17.3306 16.9762C17.3302 17.0074 17.4232 17.0636 17.421 17.0955L17.7341 19.1325L17.7349 19.1348C18.4456 18.9297 19.1367 18.6619 19.8 18.3345C21.4065 17.5395 22.2484 16.6781 22.2484 16.6781C22.6091 15.0746 22.3072 14.5676 22.0399 14.4094" fill="#34484C"/>
<path d="M16.98 14.4701C16.7468 14.9137 15.2505 15.1151 14.952 15.1151L12.5156 15.003L8.98388 16.503L8.79413 16.6702C10.614 16.1366 14.4266 15.3487 17.3318 16.9759C17.3584 16.9864 17.3854 16.9954 17.4113 17.0055L17.4311 17.0002C17.6918 16.938 20.4236 16.2465 22.041 14.4105L22.0744 14.3719C22.0744 14.3719 19.7576 13.7655 17.3164 13.6766L17.4113 14.0017C17.4113 14.0017 17.2598 14.2927 16.98 14.4701Z" fill="#7F7F7E"/>
<path d="M11.73 7.90874L8.44273 8.85787C7.02373 3.20662 6.06898 1.15762 5.51698 0.432368C5.10673 0.385118 4.77485 0.365618 4.61023 0.397493C4.6631 0.437993 4.7156 0.482618 4.76923 0.531368L7.88435 12.3397C9.15748 12.1939 11.6269 12.1635 13.6582 12.1672L13.5454 11.7502L13.1449 10.2585L10.9541 2.11162C10.9541 2.11162 11.0407 1.67024 10.1366 1.32074C9.86885 1.21724 9.51523 1.12237 9.04723 1.04812C10.6459 2.66624 11.73 7.90874 11.73 7.90874ZM8.53948 14.8207L8.9831 16.5037L12.5149 15.0037L8.53948 14.8207Z" fill="#B3B3B3"/>
<path d="M8.98315 16.5037L8.53953 14.8219L6.43428 14.7247C6.13615 14.7247 5.8654 14.5575 5.8654 14.2792V13.5191C5.8654 13.2405 6.10728 13.0065 7.35265 12.4207H7.37853C7.51315 12.3919 7.68453 12.366 7.8859 12.3431L4.77078 0.534372C4.71968 0.487537 4.66663 0.442873 4.61178 0.400497C4.27615 0.138747 3.96003 0.0254973 3.66753 0.0101223C3.57865 0.00562226 3.49203 0.0101223 3.40803 0.0228723H3.40728C2.29915 0.193122 1.59265 1.73962 1.59265 1.73962L6.00003 19.1359L6.09265 19.0541L8.7934 16.6714L8.98315 16.5045" fill="#969492"/>
<path d="M7.88622 12.342C7.68522 12.3649 7.51385 12.3907 7.37885 12.4196H15.6663C15.639 12.42 15.6206 12.4256 15.6112 12.4256L16.2648 14.5586C16.5547 14.655 16.7947 14.5867 16.9792 14.4701C17.259 14.2927 17.4101 14.0021 17.4101 14.0021L17.3152 13.677L16.8855 12.2014C16.8855 12.2014 15.441 12.1725 13.659 12.1695C11.6283 12.1691 9.15897 12.1961 7.88584 12.342" fill="#243438"/>
<path d="M14.9512 15.1162C15.2497 15.1162 16.746 14.9149 16.9792 14.4712C16.7947 14.5882 16.5547 14.6561 16.2648 14.5597L15.6112 12.4267C15.6206 12.4267 15.639 12.4245 15.6663 12.4207H7.35297C6.1076 13.0065 5.86572 13.2405 5.86572 13.5191V14.2792C5.86572 14.5575 6.13647 14.7247 6.4346 14.7247L8.53985 14.8219L12.5152 15.0037L14.9512 15.1162Z" fill="#34484C"/>
</g>
<defs>
<clipPath id="clip0_107_655">
<rect width="24" height="24" fill="white"/>
</clipPath>
</defs>
</svg>
