<svg width="238" height="229" viewBox="0 0 238 229" fill="none" xmlns="http://www.w3.org/2000/svg">
<path d="M120.972 5.50029L119.442 5.47029V7V67.0295V68.4575L120.869 68.5277C129.71 68.9631 137.767 72.3806 144.056 77.7982L145.115 78.7101L146.099 77.7188L188.427 35.1077L189.514 34.0128L188.389 32.9568C170.693 16.3486 147.035 6.01159 120.972 5.50029Z" fill="url(#paint0_linear_25_337)" stroke="#868686" stroke-width="3"/>
<path d="M190.643 34.9468L189.569 33.8576L188.501 34.9528L146.593 77.9323L145.596 78.9547L146.568 80.0007C152.522 86.4068 155.774 96.7308 156.506 105.13L156.632 106.576L158.081 106.498L218.326 103.235L219.81 103.155L219.744 101.671C218.669 77.4257 208.947 53.5087 190.643 34.9468Z" fill="url(#paint1_linear_25_337)" stroke="#868686" stroke-width="3"/>
<path d="M220.061 106.977L220.037 105.447L218.508 105.501L158.516 107.609L157.089 107.659L157.069 109.087C156.944 117.939 153.812 126.11 148.618 132.586L147.744 133.676L148.769 134.625L192.841 175.43L193.973 176.478L194.989 175.316C210.965 157.048 220.465 133.042 220.061 106.977Z" fill="url(#paint2_linear_25_337)" stroke="#868686" stroke-width="3"/>
<path d="M191.01 179.609L192.209 178.517L191.027 177.407L148.875 137.808L147.894 136.886L146.872 137.763C140.116 143.558 130.475 147.613 122.23 148.002L120.889 148.065L120.804 149.405L117.003 209.405L116.902 211.007L118.507 211C142.885 210.89 171.825 197.078 191.01 179.609Z" fill="url(#paint3_linear_25_337)" stroke="#868686" stroke-width="3"/>
<path d="M116.158 5.50029L117.688 5.47029V7V67.0295V68.4575L116.262 68.5277C107.25 68.9714 98.6611 71.3112 92.479 76.6365L91.4275 77.5422L90.4429 76.5643L48.7106 35.1148L47.6084 34.02L48.7412 32.9568C66.4371 16.3486 90.0946 6.01159 116.158 5.50029Z" fill="url(#paint4_linear_25_337)" stroke="#868686" stroke-width="3"/>
<path d="M46.4869 34.9468L47.5482 33.8705L48.6163 34.94L90.0614 76.44L91.0826 77.4626L90.0987 78.5212C87.0475 81.8042 83.6783 86.3126 80.9865 91.0467C78.2785 95.8091 76.3411 100.652 75.9943 104.63L75.8689 106.07L74.4256 105.998L18.8103 103.235L17.3201 103.161L17.3862 101.671C18.4613 77.4257 28.1829 53.5087 46.4869 34.9468Z" fill="url(#paint5_linear_25_337)" stroke="#868686" stroke-width="3"/>
<path d="M17.0691 106.977L17.0931 105.434L18.6348 105.501L75.5658 108.001L76.9799 108.064L76.9998 109.479C77.1241 118.305 81.4594 129.064 86.6702 135.562L87.5588 136.67L86.5008 137.617L44.2712 175.446L43.1405 176.459L42.1412 175.316C26.1647 157.048 16.6648 133.042 17.0691 106.977Z" fill="url(#paint6_linear_25_337)" stroke="#868686" stroke-width="3"/>
<path d="M45.9259 179.547L44.8398 178.433L45.9929 177.388L88.4929 138.888L89.5334 137.946L90.5427 138.922C93.5805 141.859 98.2737 143.921 103.418 145.359C108.529 146.787 113.907 147.553 118.16 148.009L119.614 148.164L119.495 149.622L114.596 209.707L114.476 211.176L113.004 211.082C88.7583 209.526 64.1034 198.195 45.9259 179.547Z" fill="url(#paint7_linear_25_337)" stroke="#868686" stroke-width="3"/>
<path d="M125.92 7.50331L116.457 24.0396L106.868 7.57605L125.92 7.50331Z" fill="#649453" stroke="#2E2B2B"/>
<circle cx="116.5" cy="108.5" r="40.375" fill="url(#paint8_linear_25_337)" stroke="#868686" stroke-width="4.25"/>
<path d="M102.339 105.453C102.273 104.833 101.994 104.35 101.501 104.004C101.014 103.659 100.379 103.486 99.598 103.486C99.0488 103.486 98.5777 103.569 98.1847 103.734C97.7917 103.9 97.491 104.125 97.2827 104.409C97.0743 104.693 96.9678 105.018 96.9631 105.382C96.9631 105.685 97.0317 105.948 97.169 106.17C97.3111 106.393 97.5028 106.582 97.7443 106.739C97.9858 106.89 98.2533 107.018 98.5469 107.122C98.8404 107.226 99.1364 107.314 99.4347 107.385L100.798 107.726C101.348 107.854 101.875 108.027 102.382 108.244C102.893 108.462 103.35 108.737 103.753 109.068C104.16 109.4 104.482 109.8 104.719 110.268C104.955 110.737 105.074 111.286 105.074 111.916C105.074 112.768 104.856 113.519 104.42 114.168C103.985 114.812 103.355 115.316 102.531 115.68C101.712 116.04 100.72 116.22 99.5554 116.22C98.4238 116.22 97.4413 116.045 96.608 115.695C95.7794 115.344 95.1307 114.833 94.6619 114.161C94.1979 113.488 93.947 112.669 93.9091 111.703H96.5014C96.5393 112.21 96.6955 112.631 96.9702 112.967C97.2448 113.304 97.6023 113.554 98.0426 113.72C98.4877 113.886 98.9848 113.969 99.5341 113.969C100.107 113.969 100.609 113.884 101.04 113.713C101.475 113.538 101.816 113.296 102.062 112.989C102.309 112.676 102.434 112.312 102.439 111.895C102.434 111.516 102.323 111.204 102.105 110.957C101.887 110.706 101.582 110.498 101.189 110.332C100.801 110.162 100.346 110.01 99.8253 109.878L98.1705 109.452C96.9725 109.144 96.0256 108.678 95.3295 108.053C94.6383 107.423 94.2926 106.587 94.2926 105.545C94.2926 104.688 94.5246 103.938 94.9886 103.294C95.4574 102.65 96.0942 102.151 96.8991 101.795C97.7041 101.436 98.6155 101.256 99.6335 101.256C100.666 101.256 101.57 101.436 102.347 101.795C103.128 102.151 103.741 102.645 104.186 103.28C104.631 103.91 104.861 104.634 104.875 105.453H102.339ZM107.423 116V101.455H112.877C113.995 101.455 114.932 101.663 115.69 102.08C116.452 102.496 117.028 103.069 117.416 103.798C117.809 104.523 118.005 105.347 118.005 106.27C118.005 107.203 117.809 108.031 117.416 108.756C117.023 109.48 116.443 110.051 115.676 110.467C114.909 110.879 113.964 111.085 112.842 111.085H109.227V108.919H112.487C113.14 108.919 113.675 108.805 114.092 108.578C114.509 108.351 114.816 108.038 115.015 107.641C115.219 107.243 115.321 106.786 115.321 106.27C115.321 105.754 115.219 105.299 115.015 104.906C114.816 104.513 114.506 104.208 114.085 103.99C113.668 103.768 113.131 103.656 112.473 103.656H110.058V116H107.423ZM122.929 101.455V116H120.294V101.455H122.929ZM137.735 101.455V116H135.392L128.538 106.092H128.417V116H125.782V101.455H128.14L134.987 111.369H135.115V101.455H137.735Z" fill="white"/>
<path d="M88.3835 21.3277C88.5118 21.2312 88.6189 21.1233 88.7047 21.0038C88.793 20.8855 88.8586 20.7572 88.9014 20.619C88.9449 20.4826 88.9621 20.3375 88.9531 20.1838C88.9458 20.0294 88.9127 19.8702 88.8537 19.7062C88.7479 19.4122 88.5797 19.1769 88.349 19.0002C88.1184 18.8235 87.8359 18.7209 87.5015 18.6923C87.1696 18.6648 86.7987 18.7248 86.3888 18.8723C85.9754 19.0211 85.6486 19.2122 85.4085 19.4455C85.1684 19.6788 85.0152 19.9383 84.9489 20.2238C84.8843 20.5087 84.9072 20.8044 85.0175 21.1109C85.1176 21.3889 85.2576 21.6103 85.4376 21.7749C85.6183 21.9414 85.8265 22.0446 86.0623 22.0845C86.2999 22.1239 86.5514 22.0957 86.817 22.0002L86.863 22.2372L86.3282 20.751L87.1034 20.472L87.9028 22.6933L87.2452 22.93C86.7765 23.0987 86.3352 23.1448 85.9212 23.0683C85.5072 22.9918 85.1447 22.8123 84.8337 22.5297C84.5244 22.2465 84.2883 21.8786 84.1255 21.4259C83.944 20.9216 83.8978 20.438 83.9868 19.9752C84.0783 19.5136 84.295 19.1004 84.6368 18.7359C84.9811 18.3725 85.4419 18.0869 86.0193 17.8791C86.4612 17.7201 86.8784 17.6404 87.2708 17.6401C87.6638 17.6415 88.0223 17.7118 88.3461 17.8509C88.6717 17.9894 88.9526 18.1882 89.1887 18.4474C89.4267 18.706 89.6101 19.0144 89.7391 19.3725C89.8481 19.6755 89.9052 19.974 89.9103 20.268C89.9173 20.5614 89.8762 20.8389 89.7872 21.1004C89.6988 21.3637 89.5669 21.6013 89.3916 21.8134C89.2163 22.0254 89.0015 22.2003 88.7471 22.3382L88.3835 21.3277ZM85.9409 26.4873C85.7927 26.0757 85.7503 25.6894 85.8137 25.3284C85.8794 24.9686 86.0411 24.6518 86.2989 24.3779C86.5583 24.1033 86.9028 23.8888 87.3323 23.7342C87.7547 23.5822 88.1542 23.529 88.5309 23.5746C88.91 23.6214 89.2409 23.7579 89.5237 23.9842C89.8082 24.2099 90.021 24.5188 90.1621 24.9109C90.2532 25.1639 90.2981 25.4175 90.2969 25.6715C90.2982 25.9267 90.2453 26.1712 90.1382 26.405C90.0317 26.6405 89.8655 26.8553 89.6394 27.0494C89.4152 27.2428 89.1231 27.4043 88.7631 27.5339L88.4664 27.6406L87.2553 24.2752L87.9075 24.0405L88.7848 26.4784C88.9695 26.4099 89.1199 26.3105 89.236 26.1801C89.3539 26.0491 89.4294 25.8981 89.4625 25.7272C89.4963 25.5581 89.4798 25.3808 89.4131 25.1955C89.3419 24.9977 89.2313 24.8413 89.0812 24.7262C88.9328 24.6105 88.7661 24.5387 88.5809 24.5107C88.3982 24.4839 88.2147 24.5026 88.0305 24.5669L87.4611 24.7718C87.2223 24.8577 87.0331 24.9751 86.8935 25.124C86.7556 25.2723 86.6694 25.4411 86.635 25.6307C86.6023 25.8196 86.6238 26.0191 86.6995 26.2294C86.7501 26.3702 86.8156 26.4906 86.8958 26.5905C86.9779 26.6898 87.0732 26.7672 87.1817 26.8228C87.2903 26.8783 87.4102 26.9066 87.5414 26.9077L87.765 27.8478C87.5056 27.8767 87.258 27.843 87.0221 27.7467C86.7886 27.6516 86.5783 27.4979 86.3911 27.2854C86.2057 27.0723 86.0557 26.8063 85.9409 26.4873ZM91.8164 29.6755L91.0679 29.9449L90.2185 27.5845L90.9669 27.3152L91.8164 29.6755ZM92.1603 27.5439L92.5086 28.5116L88.654 29.8987C88.5239 29.9455 88.4312 30.001 88.3758 30.0653C88.3228 30.1306 88.2957 30.2007 88.2945 30.2757C88.2933 30.3506 88.3071 30.4281 88.3359 30.5083C88.3577 30.5689 88.3821 30.6226 88.4089 30.6692C88.4365 30.7177 88.4586 30.754 88.4753 30.7782L87.7775 31.2135C87.7411 31.1682 87.6949 31.1013 87.6389 31.0128C87.5835 30.926 87.5293 30.8147 87.4764 30.6788C87.382 30.439 87.34 30.2075 87.3503 29.9844C87.3624 29.7607 87.4334 29.561 87.5635 29.3854C87.6941 29.2115 87.8881 29.0793 88.1454 28.9888L92.1603 27.5439ZM88.6698 33.8188L89.3862 33.561L91.9333 34.7911C92.1823 34.9068 92.3998 34.9996 92.586 35.0695C92.7722 35.1394 92.943 35.1805 93.0984 35.193C93.2539 35.2055 93.4074 35.1845 93.5588 35.13C93.7317 35.0678 93.8655 34.9754 93.9603 34.8527C94.0568 34.7294 94.1142 34.587 94.1325 34.4254C94.1509 34.2638 94.1286 34.0957 94.0658 33.921C94.001 33.741 93.9068 33.5968 93.7832 33.4883C93.6614 33.3791 93.5194 33.3115 93.357 33.2854C93.1953 33.2611 93.0208 33.2826 92.8337 33.3499L92.4941 32.4063C92.8416 32.2813 93.1722 32.2519 93.4859 32.3181C93.7996 32.3844 94.0769 32.5312 94.3177 32.7585C94.5592 32.9876 94.745 33.2831 94.8752 33.6448C95.0073 34.0119 95.0548 34.3592 95.0176 34.6866C94.9804 35.0139 94.87 35.2972 94.6864 35.5364C94.5034 35.7774 94.2586 35.953 93.9521 36.0633C93.7472 36.1371 93.5317 36.1704 93.3056 36.1631C93.0796 36.1559 92.8107 36.0967 92.499 35.9854C92.1878 35.876 91.7974 35.7055 91.3276 35.474L90.0284 34.8758L89.991 34.8892L90.8491 37.2736L90.0204 37.5718L88.6698 33.8188ZM90.9762 40.5551C90.8178 40.1149 90.7932 39.697 90.9025 39.3015C91.0142 38.907 91.2507 38.5491 91.6121 38.2279C91.976 37.9077 92.4564 37.6402 93.0534 37.4254C93.651 37.2123 94.1894 37.1142 94.6684 37.131C95.1499 37.149 95.5576 37.275 95.8914 37.5091C96.2259 37.745 96.472 38.0822 96.6298 38.5205C96.7876 38.9589 96.8127 39.3756 96.7053 39.7705C96.5978 40.1655 96.3639 40.5224 96.0036 40.8413C95.644 41.1619 95.1666 41.4293 94.5714 41.6435C93.9726 41.859 93.4307 41.9584 92.9456 41.9417C92.463 41.9262 92.0535 41.8008 91.7173 41.5656C91.3816 41.3321 91.1346 40.9953 90.9762 40.5551ZM91.8129 40.254C91.936 40.5962 92.2016 40.8055 92.6096 40.8821C93.02 40.9599 93.554 40.8804 94.2116 40.6438C94.6464 40.4873 94.9954 40.3104 95.2585 40.1131C95.5216 39.9157 95.6982 39.7072 95.7882 39.4876C95.8801 39.2674 95.8853 39.0441 95.8038 38.8178C95.6813 38.4774 95.4152 38.2693 95.0054 38.1933C94.5974 38.1167 94.067 38.1949 93.4141 38.4278C92.9769 38.5831 92.6255 38.7589 92.3599 38.9551C92.095 39.1531 91.9167 39.3622 91.8248 39.5824C91.7348 39.802 91.7308 40.0259 91.8129 40.254ZM94.2389 46.0724L94.5276 45.9685C94.7396 45.8922 94.9508 45.8665 95.1611 45.8915C95.372 45.9183 95.5629 45.9985 95.7338 46.1322C95.9047 46.266 96.0344 46.4558 96.1229 46.7017C96.214 46.9548 96.236 47.1864 96.1888 47.3966C96.1435 47.6062 96.0474 47.7867 95.9006 47.9381C95.7545 48.0914 95.5745 48.2065 95.3606 48.2834L95.0719 48.3873C94.8599 48.4636 94.6487 48.4893 94.4384 48.4643C94.2282 48.4394 94.0376 48.36 93.8667 48.2263C93.6964 48.0943 93.5664 47.9036 93.4766 47.6541C93.3868 47.4046 93.3652 47.1739 93.4117 46.9619C93.4582 46.7499 93.5545 46.5673 93.7006 46.4141C93.8474 46.2626 94.0268 46.1487 94.2389 46.0724ZM94.7786 46.6662L94.49 46.7701C94.3492 46.8208 94.2322 46.9011 94.1389 47.0112C94.0457 47.1212 94.0298 47.2618 94.0914 47.4328C94.1536 47.6057 94.2542 47.7034 94.3931 47.7258C94.5344 47.7494 94.6764 47.7356 94.8189 47.6843L95.1076 47.5804C95.2502 47.5291 95.3691 47.4511 95.4642 47.3464C95.5612 47.2411 95.5776 47.0993 95.5135 46.9211C95.4532 46.7536 95.3508 46.6565 95.2064 46.63C95.0638 46.6028 94.9212 46.6149 94.7786 46.6662ZM96.3703 42.1623L96.659 42.0584C96.8729 41.9815 97.0853 41.9564 97.2962 41.9831C97.5071 42.0099 97.6971 42.0904 97.8662 42.2248C98.0372 42.3586 98.1669 42.5484 98.2554 42.7943C98.3458 43.0456 98.3674 43.2763 98.3203 43.4865C98.2756 43.6979 98.1798 43.8793 98.033 44.0307C97.8863 44.1822 97.7059 44.2964 97.4921 44.3733L97.2034 44.4772C96.9896 44.5542 96.7775 44.5802 96.5672 44.5552C96.3594 44.5314 96.1709 44.4522 96.0018 44.3179C95.8326 44.1835 95.7035 43.9924 95.6143 43.7447C95.5239 43.4935 95.5011 43.2622 95.5458 43.0508C95.5911 42.8413 95.6869 42.6599 95.833 42.5066C95.9792 42.3534 96.1583 42.2386 96.3703 42.1623ZM96.912 42.7614L96.6233 42.8653C96.4808 42.9166 96.3625 42.9964 96.2687 43.1047C96.1772 43.2141 96.1622 43.3543 96.2238 43.5254C96.2854 43.6965 96.3856 43.7933 96.5245 43.8157C96.6659 43.8393 96.8078 43.8255 96.9504 43.7742L97.2391 43.6703C97.3817 43.619 97.5005 43.541 97.5957 43.4363C97.6927 43.3309 97.7094 43.1901 97.6459 43.0136C97.585 42.8443 97.4826 42.7473 97.3389 42.7226C97.1951 42.6978 97.0528 42.7108 96.912 42.7614ZM92.3207 43.9639L99.1496 45.7575L99.3901 46.4257L92.5612 44.6321L92.3207 43.9639ZM95.6848 53.5637C95.5405 53.1627 95.5036 52.7835 95.5743 52.426C95.6449 52.0684 95.8096 51.7515 96.0684 51.4752C96.3279 51.2007 96.6697 50.9871 97.0939 50.8344C97.518 50.6818 97.9184 50.6283 98.2951 50.6739C98.6725 50.7213 99.0023 50.8602 99.2845 51.0908C99.5667 51.3213 99.78 51.6371 99.9243 52.038C100.069 52.439 100.105 52.8182 100.035 53.1758C99.9642 53.5333 99.7983 53.8497 99.537 54.1248C99.2764 54.4018 98.934 54.6166 98.5099 54.7692C98.0857 54.9219 97.6859 54.9742 97.3103 54.9261C96.9354 54.8799 96.6068 54.7415 96.3246 54.511C96.0423 54.2804 95.8291 53.9647 95.6848 53.5637ZM96.4619 53.2901C96.5401 53.5075 96.6653 53.6678 96.8372 53.7709C97.011 53.8735 97.2123 53.9238 97.4411 53.922C97.6705 53.9219 97.91 53.877 98.1595 53.7872C98.4108 53.6968 98.6248 53.5785 98.8017 53.4323C98.981 53.2873 99.1049 53.1199 99.1735 52.9302C99.2421 52.7405 99.2373 52.5369 99.159 52.3195C99.0789 52.0967 98.9516 51.9332 98.7772 51.8289C98.6034 51.7264 98.4009 51.6754 98.1697 51.6761C97.9409 51.678 97.7008 51.7241 97.4496 51.8145C97.2001 51.9043 96.9866 52.0214 96.8091 52.1658C96.6322 52.3119 96.5095 52.4799 96.4409 52.6696C96.3747 52.8605 96.3817 53.0673 96.4619 53.2901ZM101.623 56.9256L100.874 57.195L100.001 54.7678L100.749 54.4985L101.623 56.9256ZM96.8618 56.5828L101.355 54.9658C101.632 54.8664 101.882 54.8407 102.107 54.8887C102.332 54.9385 102.525 55.0441 102.686 55.2056C102.846 55.3672 102.969 55.5665 103.055 55.8035C103.115 55.971 103.155 56.1246 103.175 56.2643C103.195 56.404 103.206 56.5089 103.207 56.579L102.389 56.6559C102.387 56.6104 102.381 56.5542 102.371 56.4874C102.363 56.4199 102.345 56.3478 102.317 56.2712C102.252 56.0912 102.163 55.9795 102.049 55.936C101.937 55.8938 101.801 55.9015 101.64 55.9592L97.211 57.5532L96.8618 56.5828ZM102.644 59.7631L101.895 60.0325L101.022 57.6053L101.77 57.336L102.644 59.7631ZM97.883 59.4203L102.376 57.8033C102.653 57.7039 102.903 57.6782 103.128 57.7262C103.353 57.7759 103.546 57.8816 103.707 58.0431C103.867 58.2047 103.991 58.4039 104.076 58.641C104.136 58.8085 104.176 58.9621 104.196 59.1018C104.216 59.2415 104.227 59.3464 104.228 59.4165L103.41 59.4933C103.408 59.4479 103.402 59.3917 103.392 59.3248C103.384 59.2573 103.366 59.1853 103.338 59.1086C103.274 58.9287 103.184 58.8169 103.07 58.7735C102.958 58.7312 102.822 58.739 102.661 58.7967L98.2322 60.3906L97.883 59.4203Z" fill="#F3E2E2"/>
<path d="M37.6785 67.6321C37.7102 67.4747 37.7185 67.3229 37.7032 67.1766C37.6906 67.0295 37.6543 66.8901 37.5945 66.7584C37.5364 66.6275 37.4528 66.5077 37.3439 66.3988C37.2359 66.2882 37.1054 66.1913 36.9523 66.108C36.6779 65.9586 36.3958 65.8945 36.106 65.9157C35.8163 65.937 35.537 66.048 35.2681 66.2488C35.0018 66.4488 34.7645 66.7402 34.5562 67.1228C34.3461 67.5087 34.2289 67.8686 34.2045 68.2025C34.1802 68.5364 34.2381 68.8321 34.3783 69.0896C34.5193 69.3453 34.7329 69.5511 35.019 69.7069C35.2785 69.8481 35.5303 69.9205 35.7742 69.9239C36.0199 69.9282 36.244 69.867 36.4468 69.7401C36.6504 69.6116 36.8197 69.4235 36.9546 69.1756L37.1466 69.3222L35.7593 68.5669L36.1532 67.8433L38.2267 68.9721L37.8925 69.5859C37.6544 70.0234 37.3552 70.3511 36.995 70.5691C36.6349 70.787 36.2447 70.8938 35.8245 70.8893C35.4052 70.8831 34.9842 70.765 34.5617 70.535C34.091 70.2788 33.7351 69.9481 33.4942 69.5431C33.2558 69.1373 33.1431 68.6846 33.1563 68.185C33.1721 67.6847 33.3267 67.165 33.6201 66.6261C33.8446 66.2136 34.1034 65.8768 34.3965 65.6158C34.6911 65.3557 35.0057 65.1701 35.3401 65.0589C35.6754 64.946 36.0174 64.9079 36.3662 64.9447C36.7158 64.9797 37.0578 65.0883 37.3922 65.2703C37.675 65.4242 37.916 65.6094 38.1152 65.8256C38.3154 66.0403 38.4691 66.2749 38.5763 66.5295C38.6852 66.785 38.7446 67.0502 38.7545 67.3251C38.7644 67.6001 38.7201 67.8736 38.6216 68.1456L37.6785 67.6321ZM39.2817 73.111C38.8975 72.9018 38.6091 72.6413 38.4165 72.3295C38.2266 72.0169 38.1369 71.6726 38.1475 71.2967C38.1589 70.9191 38.2738 70.5299 38.492 70.129C38.7067 69.7348 38.9699 69.4295 39.2817 69.2133C39.596 68.9962 39.9341 68.8784 40.2958 68.8596C40.6584 68.8392 41.0226 68.9286 41.3886 69.1278C41.6248 69.2564 41.8269 69.416 41.9948 69.6067C42.1653 69.7965 42.2882 70.0144 42.3635 70.2602C42.4405 70.507 42.4591 70.778 42.4191 71.0732C42.38 71.3668 42.269 71.6816 42.0861 72.0176L41.9354 72.2946L38.794 70.5845L39.1254 69.9756L41.401 71.2144C41.4935 71.0405 41.5398 70.8663 41.54 70.6917C41.541 70.5155 41.4971 70.3525 41.4083 70.2028C41.3211 70.0539 41.191 69.9324 41.018 69.8383C40.8334 69.7378 40.6467 69.6944 40.4581 69.7081C40.2704 69.7202 40.098 69.7774 39.9411 69.8795C39.7867 69.9809 39.662 70.1168 39.5671 70.2873L39.2778 70.8187C39.1564 71.0416 39.093 71.2551 39.0876 71.4592C39.0831 71.6616 39.1309 71.845 39.2311 72.0095C39.3322 72.1724 39.4809 72.3073 39.6772 72.4141C39.8086 72.4857 39.9375 72.5321 40.0639 72.5535C40.1912 72.5732 40.3139 72.5677 40.4319 72.5371C40.5499 72.5064 40.6583 72.4479 40.7571 72.3615L41.5488 72.9155C41.3743 73.1094 41.1669 73.2488 40.9266 73.3336C40.6889 73.4177 40.4295 73.4425 40.1485 73.4082C39.8684 73.3721 39.5795 73.2731 39.2817 73.111ZM45.7909 71.5891L45.4106 72.2877L43.2074 71.0883L43.5877 70.3897L45.7909 71.5891ZM44.6315 69.7676L45.5348 70.2593L43.5761 73.8573C43.51 73.9787 43.4776 74.0819 43.4788 74.1667C43.4827 74.2507 43.509 74.3211 43.5579 74.3779C43.6068 74.4347 43.6686 74.4835 43.7435 74.5242C43.8001 74.555 43.8539 74.5789 43.905 74.596C43.9578 74.6139 43.9984 74.6263 44.027 74.6333L43.7948 75.4222C43.7375 75.4126 43.6585 75.3933 43.5578 75.3644C43.4588 75.3364 43.3443 75.2891 43.2144 75.2227C42.9846 75.1062 42.7994 74.9612 42.6588 74.7877C42.5192 74.6124 42.4396 74.416 42.42 74.1984C42.4022 73.9816 42.4593 73.7539 42.5913 73.5153L44.6315 69.7676ZM46.1928 76.7762L46.5569 76.1075L49.2777 75.3342C49.5406 75.2552 49.7649 75.18 49.9504 75.1085C50.136 75.037 50.291 74.9542 50.4155 74.8603C50.5399 74.7663 50.6406 74.6486 50.7176 74.5072C50.8055 74.3459 50.844 74.1879 50.8333 74.0333C50.8235 73.877 50.7718 73.7324 50.6781 73.5994C50.5844 73.4665 50.4561 73.3556 50.2931 73.2669C50.1251 73.1754 49.9588 73.1302 49.7944 73.1313C49.6308 73.1307 49.4797 73.1745 49.341 73.2629C49.204 73.3522 49.0879 73.4842 48.9929 73.6589L48.1121 73.1794C48.2887 72.855 48.5162 72.6134 48.7946 72.4544C49.0731 72.2955 49.3778 72.2209 49.7088 72.2308C50.0415 72.2415 50.3767 72.3388 50.7144 72.5227C51.0571 72.7092 51.3233 72.9371 51.513 73.2065C51.7028 73.4758 51.8086 73.7609 51.8303 74.0617C51.8536 74.3634 51.7875 74.6573 51.6317 74.9434C51.5276 75.1347 51.3886 75.3027 51.2149 75.4475C51.0412 75.5923 50.8009 75.7267 50.494 75.8508C50.1888 75.9757 49.7838 76.1078 49.2789 76.247L47.9105 76.6632L47.8914 76.6982L50.1171 77.9098L49.696 78.6833L46.1928 76.7762ZM52.3927 80.2775C51.9818 80.0538 51.6858 79.7578 51.5046 79.3896C51.3259 79.0207 51.2648 78.5961 51.3214 78.1158C51.3806 77.6348 51.5618 77.1156 51.8652 76.5584C52.1702 76.0021 52.5073 75.571 52.8765 75.2652C53.2482 74.9587 53.6366 74.7819 54.0417 74.7351C54.4484 74.6891 54.8563 74.7775 55.2655 75.0002C55.6747 75.223 55.9704 75.5176 56.1526 75.8842C56.3347 76.2507 56.3971 76.6728 56.3397 77.1505C56.2841 77.6291 56.105 78.1462 55.8025 78.7018C55.4983 79.2607 55.1594 79.6951 54.7858 80.005C54.4149 80.3141 54.0256 80.4925 53.6179 80.5401C53.212 80.5887 52.8036 80.5011 52.3927 80.2775ZM52.8179 79.4965C53.1372 79.6703 53.4748 79.6503 53.8306 79.4365C54.189 79.2218 54.5352 78.8076 54.8694 78.1938C55.0903 77.7879 55.2335 77.4238 55.299 77.1015C55.3645 76.7792 55.3579 76.5061 55.2793 76.2821C55.2016 76.0565 55.0571 75.8862 54.8458 75.7712C54.5281 75.5983 54.1909 75.6196 53.8342 75.8351C53.4784 76.049 53.134 76.4599 52.8009 77.0678C52.5774 77.4744 52.4316 77.8392 52.3635 78.1623C52.2971 78.4863 52.3028 78.7611 52.3805 78.9867C52.4592 79.2106 52.6049 79.3806 52.8179 79.4965ZM58.4971 82.2324L58.6438 81.9629C58.7516 81.7649 58.8923 81.6054 59.0661 81.4844C59.2415 81.3642 59.4374 81.2973 59.654 81.2837C59.8706 81.27 60.0937 81.3257 60.3233 81.4507C60.5595 81.5793 60.7298 81.7378 60.8342 81.9262C60.9396 82.1129 60.9878 82.3116 60.9787 82.5223C60.9713 82.734 60.9133 82.9396 60.8046 83.1392L60.6579 83.4087C60.5502 83.6066 60.4094 83.7661 60.2357 83.8872C60.062 84.0082 59.8668 84.0756 59.6502 84.0892C59.4353 84.1038 59.2114 84.0476 58.9785 83.9209C58.7456 83.7941 58.5761 83.6361 58.47 83.4467C58.3639 83.2574 58.3145 83.057 58.3219 82.8454C58.331 82.6346 58.3894 82.4303 58.4971 82.2324ZM59.2951 82.3174L59.1484 82.5869C59.0768 82.7183 59.0428 82.8561 59.0462 83.0003C59.0497 83.1445 59.1312 83.2601 59.2909 83.347C59.4523 83.4348 59.5923 83.441 59.7111 83.3655C59.8324 83.2892 59.9293 83.1845 60.0017 83.0514L60.1484 82.782C60.2209 82.6489 60.2578 82.5116 60.2594 82.3701C60.2618 82.227 60.1799 82.1101 60.0136 82.0196C59.8572 81.9344 59.7162 81.93 59.5907 82.0061C59.4661 82.0806 59.3675 82.1843 59.2951 82.3174ZM57.4916 77.8941L57.6383 77.6246C57.747 77.425 57.889 77.2651 58.0644 77.1449C58.2398 77.0248 58.4353 76.9587 58.651 76.9467C58.8676 76.9331 59.0907 76.9888 59.3202 77.1137C59.5548 77.2414 59.7243 77.3994 59.8287 77.5878C59.9358 77.7755 59.9847 77.9747 59.9757 78.1854C59.9666 78.3961 59.9078 78.6013 59.7991 78.8009L59.6524 79.0703C59.5438 79.27 59.4026 79.4303 59.2288 79.5514C59.0577 79.6717 58.8643 79.7378 58.6486 79.7498C58.4329 79.7617 58.2094 79.7048 57.9782 79.5789C57.7437 79.4512 57.5729 79.2936 57.4659 79.1059C57.3605 78.9192 57.3115 78.72 57.3189 78.5084C57.3263 78.2968 57.3839 78.092 57.4916 77.8941ZM58.2946 77.9818L58.1479 78.2513C58.0754 78.3844 58.0401 78.5225 58.0419 78.6658C58.0462 78.8084 58.1282 78.9231 58.2879 79.01C58.4476 79.097 58.5868 79.1027 58.7056 79.0271C58.8269 78.9509 58.9238 78.8462 58.9962 78.7131L59.1429 78.4436C59.2153 78.3106 59.2523 78.1733 59.2539 78.0318C59.2563 77.8887 59.1752 77.7723 59.0105 77.6826C58.8525 77.5966 58.7116 77.5921 58.5877 77.6691C58.4638 77.7462 58.3661 77.8504 58.2946 77.9818ZM55.6625 81.9313L61.9575 78.7338L62.5813 79.0734L56.2863 82.2709L55.6625 81.9313ZM64.5557 86.8696C64.1814 86.6659 63.9019 86.407 63.717 86.0929C63.5322 85.7788 63.4447 85.4325 63.4545 85.054C63.466 84.6764 63.5795 84.2897 63.795 83.8938C64.0105 83.4979 64.2742 83.1918 64.586 82.9755C64.8995 82.7602 65.2383 82.6449 65.6024 82.6296C65.9665 82.6143 66.3357 82.7086 66.71 82.9123C67.0842 83.1161 67.3638 83.375 67.5486 83.6891C67.7334 84.0032 67.8196 84.3499 67.8072 84.7291C67.7965 85.1093 67.6834 85.4973 67.4679 85.8932C67.2524 86.2891 66.9883 86.5939 66.6758 86.8076C66.3649 87.0222 66.0274 87.1371 65.6632 87.1524C65.2991 87.1676 64.9299 87.0734 64.5557 86.8696ZM64.9546 86.1488C65.1575 86.2592 65.3575 86.2959 65.5546 86.2587C65.7526 86.2198 65.9364 86.1237 66.1062 85.9703C66.2776 85.8178 66.4267 85.6251 66.5535 85.3922C66.6812 85.1577 66.7626 84.927 66.7976 84.7002C66.8352 84.4727 66.8166 84.2653 66.7418 84.0779C66.6669 83.8906 66.528 83.7416 66.3251 83.6312C66.1172 83.518 65.9134 83.4803 65.7138 83.5183C65.5158 83.5572 65.3306 83.6537 65.1583 83.8078C64.9885 83.9612 64.8398 84.1552 64.7121 84.3898C64.5853 84.6226 64.5036 84.852 64.4669 85.0779C64.4319 85.3046 64.4518 85.5117 64.5266 85.6991C64.604 85.8857 64.7466 86.0356 64.9546 86.1488ZM71.2271 85.4361L70.8467 86.1347L68.5812 84.9014L68.9615 84.2027L71.2271 85.4361ZM67.4415 88.3436L69.7248 84.1493C69.8652 83.8914 70.0352 83.7058 70.235 83.5924C70.4364 83.48 70.6508 83.4307 70.8783 83.4445C71.1058 83.4584 71.3302 83.5256 71.5514 83.646C71.7078 83.7311 71.8399 83.8192 71.9477 83.9103C72.0556 84.0013 72.1332 84.0727 72.1805 84.1243L71.6205 84.7252C71.5886 84.6927 71.5467 84.6548 71.4948 84.6114C71.4439 84.5664 71.3826 84.5245 71.3111 84.4855C71.1431 84.3941 71.002 84.3701 70.8877 84.4136C70.7761 84.4563 70.6795 84.5525 70.598 84.7022L68.3472 88.8367L67.4415 88.3436ZM73.8757 86.8779L73.4953 87.5765L71.2297 86.3432L71.6101 85.6446L73.8757 86.8779ZM70.0901 89.7854L72.3734 85.5911C72.5138 85.3333 72.6838 85.1477 72.8836 85.0343C73.085 84.9218 73.2994 84.8725 73.5269 84.8864C73.7544 84.9002 73.9788 84.9674 74.2 85.0878C74.3564 85.173 74.4885 85.261 74.5963 85.3521C74.7042 85.4432 74.7818 85.5145 74.8291 85.5662L74.2691 86.167C74.2372 86.1345 74.1953 86.0966 74.1434 86.0533C74.0925 86.0083 74.0312 85.9663 73.9597 85.9274C73.7917 85.8359 73.6506 85.8119 73.5363 85.8554C73.4246 85.8981 73.3281 85.9943 73.2466 86.1441L70.9958 90.2785L70.0901 89.7854Z" fill="#F3E2E2"/>
<path d="M30.395 135.084C30.308 134.949 30.2081 134.834 30.0952 134.74C29.9835 134.643 29.8604 134.569 29.7256 134.516C29.5927 134.462 29.4493 134.435 29.2953 134.433C29.1408 134.429 28.9796 134.45 28.8118 134.497C28.5109 134.581 28.264 134.732 28.071 134.949C27.8781 135.167 27.7553 135.441 27.7025 135.772C27.6511 136.101 27.684 136.476 27.8014 136.895C27.9199 137.318 28.0868 137.658 28.3021 137.914C28.5174 138.171 28.7651 138.342 29.045 138.429C29.3245 138.514 29.6211 138.513 29.9348 138.425C30.2193 138.345 30.4502 138.222 30.6275 138.054C30.8066 137.886 30.9247 137.686 30.9816 137.454C31.038 137.219 31.0282 136.967 30.9521 136.695L31.1919 136.666L29.6708 137.092L29.4487 136.298L31.7221 135.662L31.9105 136.335C32.0448 136.815 32.0588 137.258 31.9525 137.666C31.8463 138.073 31.6409 138.422 31.3365 138.711C31.0317 138.999 30.6476 139.208 30.1843 139.338C29.6682 139.482 29.1825 139.493 28.7274 139.371C28.2736 139.246 27.8773 139 27.5384 138.633C27.2009 138.263 26.9495 137.783 26.7841 137.192C26.6575 136.739 26.6082 136.318 26.6364 135.926C26.6663 135.534 26.7624 135.182 26.9246 134.869C27.0863 134.554 27.3049 134.289 27.5806 134.072C27.8557 133.853 28.1766 133.693 28.5431 133.59C28.8532 133.503 29.155 133.468 29.4487 133.484C29.7418 133.498 30.0155 133.559 30.2699 133.667C30.5261 133.774 30.7536 133.923 30.9524 134.113C31.1511 134.304 31.31 134.531 31.4291 134.794L30.395 135.084ZM35.364 137.894C34.9427 138.012 34.5543 138.026 34.1989 137.937C33.8448 137.845 33.5405 137.661 33.286 137.384C33.031 137.105 32.842 136.746 32.7189 136.306C32.598 135.874 32.5738 135.472 32.6466 135.099C32.7207 134.725 32.8809 134.405 33.1271 134.139C33.3728 133.872 33.6963 133.682 34.0976 133.569C34.3565 133.497 34.6127 133.47 34.866 133.49C35.1206 133.507 35.3606 133.578 35.586 133.702C35.8132 133.825 36.0154 134.006 36.1926 134.246C36.3693 134.483 36.5092 134.786 36.6123 135.155L36.6973 135.458L33.2529 136.423L33.0661 135.755L35.5611 135.057C35.5062 134.867 35.4179 134.71 35.2964 134.585C35.1742 134.458 35.0291 134.372 34.8611 134.326C34.6948 134.28 34.5169 134.284 34.3272 134.337C34.1247 134.394 33.9607 134.493 33.835 134.634C33.7089 134.774 33.6252 134.935 33.5839 135.117C33.5439 135.298 33.5492 135.482 33.6 135.67L33.7631 136.253C33.8315 136.498 33.9349 136.695 34.0733 136.845C34.2111 136.993 34.3733 137.091 34.5599 137.139C34.7459 137.186 34.9465 137.179 35.1617 137.118C35.3058 137.078 35.4306 137.022 35.5361 136.949C35.6411 136.874 35.7252 136.785 35.7885 136.68C35.8517 136.576 35.8886 136.459 35.8992 136.328L36.853 136.173C36.8631 136.434 36.8115 136.678 36.6984 136.907C36.5867 137.133 36.418 137.331 36.1926 137.503C35.9667 137.672 35.6904 137.802 35.364 137.894ZM38.9695 132.265L39.184 133.031L36.7683 133.707L36.5539 132.941L38.9695 132.265ZM36.8685 131.767L37.8588 131.49L38.963 135.435C39.0003 135.568 39.0489 135.665 39.1089 135.725C39.1703 135.782 39.2383 135.814 39.3129 135.821C39.3875 135.828 39.4659 135.819 39.548 135.796C39.61 135.779 39.6652 135.759 39.7138 135.735C39.7641 135.711 39.8019 135.692 39.8272 135.677L40.2108 136.404C40.163 136.437 40.093 136.479 40.0006 136.528C39.9101 136.577 39.7951 136.623 39.6557 136.666C39.4097 136.743 39.1758 136.768 38.954 136.741C38.7317 136.713 38.5377 136.628 38.372 136.485C38.2081 136.342 38.0903 136.139 38.0186 135.876L36.8685 131.767ZM42.8739 135.703L42.6687 134.97L44.0802 132.519C44.2136 132.279 44.3219 132.069 44.4051 131.888C44.4883 131.707 44.5417 131.54 44.5655 131.386C44.5892 131.232 44.5794 131.077 44.536 130.922C44.4865 130.745 44.404 130.605 44.2885 130.502C44.1725 130.396 44.0346 130.329 43.8748 130.299C43.7149 130.269 43.5456 130.279 43.3669 130.329C43.1827 130.38 43.032 130.464 42.9148 130.579C42.7971 130.693 42.7194 130.83 42.6816 130.99C42.6456 131.149 42.6544 131.325 42.708 131.516L41.7423 131.787C41.6428 131.431 41.6374 131.099 41.7262 130.791C41.815 130.483 41.9815 130.217 42.2257 129.993C42.4717 129.769 42.7799 129.605 43.1501 129.502C43.5258 129.396 43.8756 129.374 44.1994 129.435C44.5232 129.496 44.7978 129.627 45.023 129.827C45.2501 130.027 45.4076 130.284 45.4954 130.598C45.5541 130.807 45.5716 131.025 45.548 131.249C45.5244 131.474 45.4459 131.738 45.3124 132.041C45.1807 132.344 44.9823 132.721 44.7174 133.172L44.0266 134.425L44.0373 134.463L46.4776 133.78L46.715 134.628L42.8739 135.703ZM49.7596 133.891C49.3092 134.017 48.8906 134.011 48.504 133.874C48.1186 133.734 47.7789 133.472 47.4846 133.088C47.1917 132.702 46.9597 132.204 46.7887 131.593C46.6195 130.981 46.5606 130.437 46.6121 129.96C46.6649 129.482 46.8202 129.084 47.0779 128.768C47.3374 128.452 47.6915 128.23 48.1401 128.105C48.5888 127.979 49.0062 127.984 49.3923 128.12C49.7784 128.256 50.1175 128.515 50.4094 128.898C50.7031 129.28 50.9352 129.775 51.1057 130.384C51.2773 130.997 51.3371 131.545 51.2854 132.027C51.2349 132.508 51.0802 132.907 50.8212 133.225C50.564 133.543 50.2101 133.765 49.7596 133.891ZM49.52 133.035C49.8702 132.937 50.0982 132.687 50.2042 132.286C50.3115 131.882 50.2709 131.344 50.0826 130.671C49.958 130.226 49.8068 129.865 49.6291 129.588C49.4513 129.311 49.2562 129.12 49.0437 129.014C48.8307 128.907 48.6084 128.885 48.3767 128.95C48.0284 129.048 47.8015 129.298 47.696 129.701C47.5901 130.103 47.6296 130.637 47.8146 131.305C47.9378 131.753 48.0877 132.116 48.2641 132.395C48.4424 132.674 48.638 132.867 48.851 132.974C49.0635 133.08 49.2865 133.1 49.52 133.035ZM55.4989 131.037L55.4162 130.741C55.3554 130.524 55.3451 130.312 55.3853 130.104C55.4273 129.895 55.5211 129.711 55.6669 129.55C55.8127 129.389 56.0114 129.274 56.2631 129.203C56.5221 129.131 56.7547 129.126 56.9609 129.188C57.1666 129.248 57.3397 129.357 57.4801 129.515C57.6224 129.671 57.7241 129.859 57.7854 130.078L57.8681 130.374C57.9288 130.591 57.9391 130.803 57.899 131.011C57.8588 131.219 57.7659 131.403 57.6201 131.564C57.4761 131.724 57.2765 131.84 57.0212 131.912C56.7658 131.983 56.5341 131.988 56.3261 131.926C56.118 131.865 55.9429 131.755 55.8006 131.598C55.6602 131.441 55.5596 131.254 55.4989 131.037ZM56.1302 130.541L56.2129 130.837C56.2533 130.981 56.3249 131.104 56.4279 131.205C56.5309 131.306 56.67 131.331 56.845 131.282C57.022 131.233 57.1267 131.14 57.1591 131.003C57.1929 130.864 57.1894 130.721 57.1486 130.575L57.0659 130.28C57.025 130.134 56.9558 130.009 56.8583 129.907C56.7603 129.803 56.6201 129.776 56.4377 129.827C56.2662 129.875 56.1621 129.97 56.1251 130.112C56.0877 130.252 56.0894 130.396 56.1302 130.541ZM51.7535 128.628L51.6708 128.332C51.6096 128.113 51.5999 127.9 51.6419 127.691C51.6839 127.483 51.778 127.299 51.9243 127.14C52.07 126.979 52.2688 126.864 52.5205 126.793C52.7776 126.721 53.0093 126.716 53.2156 126.779C53.4231 126.839 53.5971 126.947 53.7375 127.105C53.8779 127.262 53.9787 127.45 54.04 127.669L54.1227 127.964C54.184 128.183 54.1945 128.397 54.1544 128.605C54.1155 128.81 54.023 128.992 53.8767 129.151C53.7304 129.31 53.5305 129.425 53.277 129.496C53.0198 129.568 52.7875 129.574 52.5799 129.514C52.3742 129.454 52.2003 129.345 52.058 129.188C51.9158 129.032 51.8143 128.845 51.7535 128.628ZM52.3903 128.131L52.473 128.426C52.5139 128.572 52.5849 128.696 52.6861 128.797C52.7885 128.896 52.9273 128.922 53.1024 128.873C53.2775 128.824 53.3813 128.731 53.4138 128.594C53.4476 128.454 53.444 128.312 53.4032 128.166L53.3205 127.87C53.2797 127.724 53.2105 127.6 53.113 127.498C53.0149 127.393 52.8756 127.367 52.6951 127.417C52.5218 127.466 52.4176 127.561 52.3825 127.702C52.3474 127.844 52.35 127.987 52.3903 128.131ZM53.2569 132.797L55.5406 126.116L56.2246 125.925L53.9408 132.606L53.2569 132.797ZM63.0753 130.138C62.6649 130.252 62.284 130.262 61.9325 130.165C61.581 130.069 61.2769 129.882 61.02 129.604C60.765 129.325 60.5768 128.968 60.4553 128.534C60.3338 128.1 60.3094 127.697 60.3822 127.325C60.4568 126.952 60.6193 126.633 60.8697 126.368C61.1201 126.103 61.4505 125.913 61.8608 125.799C62.2712 125.684 62.6521 125.675 63.0036 125.771C63.3551 125.867 63.6586 126.056 63.9141 126.336C64.1714 126.616 64.3608 126.973 64.4823 127.407C64.6038 127.841 64.627 128.244 64.5519 128.615C64.4786 128.986 64.3168 129.303 64.0664 129.568C63.816 129.833 63.4856 130.023 63.0753 130.138ZM62.8587 129.343C63.0812 129.28 63.2501 129.167 63.3655 129.003C63.4803 128.837 63.5451 128.64 63.5599 128.412C63.5765 128.183 63.549 127.941 63.4775 127.686C63.4056 127.428 63.3031 127.206 63.1701 127.019C63.0385 126.83 62.8805 126.694 62.6962 126.612C62.512 126.53 62.3086 126.52 62.0861 126.582C61.8581 126.646 61.6858 126.761 61.5691 126.928C61.4542 127.093 61.3888 127.292 61.3727 127.522C61.358 127.751 61.3866 127.993 61.4585 128.251C61.53 128.506 61.6313 128.727 61.7625 128.915C61.8954 129.102 62.0541 129.236 62.2383 129.319C62.4239 129.398 62.6307 129.406 62.8587 129.343ZM66.8587 124.459L67.0731 125.225L64.589 125.92L64.3746 125.154L66.8587 124.459ZM66.1718 129.182L64.8846 124.584C64.8054 124.301 64.798 124.049 64.8621 123.829C64.9281 123.608 65.0474 123.423 65.2202 123.274C65.393 123.126 65.6006 123.017 65.8432 122.949C66.0147 122.901 66.1708 122.872 66.3116 122.862C66.4524 122.853 66.5577 122.85 66.6277 122.854L66.6451 123.675C66.5996 123.674 66.5431 123.676 66.4757 123.681C66.4078 123.684 66.3347 123.697 66.2562 123.719C66.072 123.77 65.9541 123.852 65.9025 123.962C65.8523 124.071 65.8501 124.207 65.896 124.371L67.1648 128.904L66.1718 129.182ZM69.7627 123.646L69.9771 124.412L67.493 125.107L67.2786 124.341L69.7627 123.646ZM69.0758 128.37L67.7886 123.771C67.7095 123.488 67.702 123.236 67.7661 123.016C67.8321 122.795 67.9515 122.61 68.1242 122.461C68.297 122.313 68.5047 122.204 68.7472 122.137C68.9187 122.089 69.0748 122.06 69.2156 122.05C69.3564 122.04 69.4618 122.037 69.5317 122.041L69.5492 122.862C69.5036 122.861 69.4472 122.863 69.3798 122.868C69.3118 122.871 69.2387 122.884 69.1602 122.906C68.976 122.958 68.8581 123.039 68.8065 123.149C68.7563 123.258 68.7541 123.394 68.8001 123.558L70.0689 128.092L69.0758 128.37Z" fill="#F3E2E2"/>
<path d="M79.7551 188.785C79.599 188.747 79.4476 188.733 79.3008 188.743C79.1534 188.751 79.0128 188.782 78.8789 188.837C78.746 188.89 78.6232 188.969 78.5104 189.074C78.396 189.178 78.2943 189.305 78.2055 189.455C78.0462 189.723 77.9718 190.003 77.9825 190.293C77.9931 190.584 78.0939 190.867 78.2848 191.143C78.4749 191.416 78.7574 191.664 79.1321 191.886C79.5101 192.11 79.8655 192.241 80.1983 192.277C80.5311 192.314 80.8287 192.267 81.0911 192.136C81.3519 192.004 81.5653 191.798 81.7314 191.518C81.8821 191.264 81.9635 191.015 81.9759 190.771C81.9892 190.526 81.9361 190.3 81.8168 190.092C81.6958 189.884 81.5139 189.708 81.2712 189.564L81.4246 189.378L80.6193 190.737L79.9105 190.317L81.1142 188.286L81.7154 188.642C82.1439 188.896 82.4605 189.207 82.6652 189.575C82.8698 189.943 82.9623 190.337 82.9424 190.756C82.921 191.175 82.7876 191.591 82.5423 192.005C82.269 192.466 81.9256 192.81 81.5121 193.036C81.0978 193.259 80.6413 193.355 80.1426 193.324C79.6432 193.29 79.1295 193.116 78.6016 192.804C78.1976 192.564 77.8705 192.293 77.6204 191.991C77.3712 191.687 77.1972 191.366 77.0982 191.028C76.9977 190.688 76.9721 190.345 77.0216 189.998C77.0694 189.65 77.1903 189.312 77.3844 188.985C77.5486 188.708 77.7424 188.473 77.9658 188.282C78.1876 188.09 78.4277 187.945 78.686 187.847C78.9453 187.748 79.2125 187.698 79.4876 187.698C79.7628 187.698 80.0344 187.753 80.3027 187.861L79.7551 188.785ZM85.2888 187.382C85.0658 187.759 84.7949 188.038 84.4763 188.219C84.157 188.397 83.8097 188.474 83.4344 188.45C83.0575 188.424 82.6727 188.295 82.28 188.063C81.8939 187.834 81.5985 187.56 81.3937 187.24C81.1883 186.918 81.0829 186.576 81.0774 186.214C81.0702 185.851 81.1729 185.49 81.3853 185.132C81.5224 184.9 81.6893 184.704 81.8859 184.543C82.0819 184.38 82.3041 184.265 82.5525 184.199C82.8019 184.131 83.0734 184.122 83.367 184.173C83.659 184.223 83.9695 184.345 84.2986 184.54L84.5699 184.701L82.7462 187.778L82.1499 187.424L83.4709 185.195C83.3005 185.097 83.1281 185.044 82.9536 185.037C82.7776 185.03 82.6131 185.068 82.4602 185.151C82.3083 185.233 82.1822 185.358 82.0817 185.528C81.9745 185.709 81.9244 185.894 81.9312 186.083C81.9365 186.271 81.9873 186.445 82.0836 186.606C82.1793 186.764 82.3106 186.893 82.4775 186.994L82.998 187.303C83.2163 187.432 83.4273 187.503 83.6311 187.516C83.8332 187.528 84.0183 187.487 84.1863 187.393C84.3528 187.298 84.493 187.154 84.6069 186.962C84.6832 186.833 84.7343 186.706 84.7603 186.58C84.7846 186.454 84.7836 186.331 84.7573 186.212C84.731 186.093 84.6765 185.983 84.5938 185.881L85.1762 185.11C85.3637 185.291 85.4954 185.504 85.5714 185.747C85.6467 185.987 85.6621 186.248 85.6175 186.527C85.5713 186.806 85.4617 187.091 85.2888 187.382ZM84.0056 180.822L84.6899 181.228L83.4109 183.386L82.7266 182.98L84.0056 180.822ZM82.143 181.914L82.6674 181.029L86.1915 183.118C86.3104 183.189 86.4123 183.225 86.4971 183.227C86.5812 183.226 86.6525 183.202 86.711 183.155C86.7696 183.109 86.8206 183.049 86.864 182.975C86.8969 182.92 86.9227 182.867 86.9416 182.816C86.9615 182.764 86.9754 182.724 86.9834 182.696L87.7633 182.957C87.7516 183.014 87.7295 183.092 87.6969 183.191C87.6653 183.289 87.6139 183.402 87.5428 183.529C87.418 183.755 87.2663 183.935 87.0877 184.069C86.9075 184.202 86.7083 184.274 86.4901 184.286C86.2728 184.296 86.0474 184.23 85.8137 184.09L82.143 181.914ZM89.204 180.61L88.549 180.222L87.8755 177.474C87.8061 177.209 87.7392 176.982 87.6745 176.794C87.6098 176.606 87.5328 176.448 87.4434 176.32C87.3541 176.192 87.2401 176.087 87.1016 176.005C86.9436 175.911 86.7871 175.867 86.6322 175.872C86.4757 175.876 86.3293 175.923 86.193 176.012C86.0567 176.1 85.9413 176.224 85.8467 176.384C85.7491 176.549 85.6979 176.713 85.6929 176.878C85.6863 177.041 85.7247 177.194 85.8079 177.335C85.8922 177.476 86.0198 177.596 86.1909 177.698L85.6796 178.56C85.3619 178.372 85.1287 178.136 84.98 177.852C84.8313 177.568 84.768 177.261 84.7899 176.93C84.8128 176.598 84.9223 176.267 85.1183 175.936C85.3172 175.6 85.5547 175.343 85.8308 175.163C86.1069 174.983 86.3957 174.888 86.697 174.877C86.9994 174.865 87.2906 174.942 87.5709 175.108C87.7582 175.219 87.9211 175.364 88.0595 175.542C88.1978 175.721 88.3234 175.966 88.4361 176.278C88.5499 176.587 88.6671 176.997 88.7877 177.506L89.1538 178.889L89.188 178.909L90.48 176.729L91.2376 177.179L89.204 180.61ZM92.9292 174.542C92.6907 174.944 92.3841 175.229 92.0095 175.397C91.6343 175.562 91.2077 175.608 90.7299 175.533C90.2513 175.457 89.7391 175.257 89.1933 174.933C88.6485 174.608 88.23 174.255 87.9379 173.875C87.6452 173.493 87.4827 173.098 87.4507 172.692C87.4196 172.284 87.5228 171.879 87.7603 171.478C87.9979 171.077 88.3031 170.793 88.6761 170.624C89.049 170.455 89.4732 170.409 89.9484 170.483C90.4247 170.556 90.9349 170.754 91.4791 171.077C92.0265 171.401 92.4482 171.756 92.7443 172.14C93.0396 172.522 93.2037 172.918 93.2364 173.327C93.2701 173.734 93.1677 174.139 92.9292 174.542ZM92.1642 174.088C92.3496 173.776 92.342 173.438 92.1412 173.074C91.9398 172.708 91.5385 172.347 90.9373 171.991C90.5398 171.755 90.1812 171.599 89.8615 171.522C89.5417 171.444 89.2686 171.441 89.0419 171.511C88.8136 171.581 88.6381 171.719 88.5155 171.926C88.3311 172.237 88.34 172.575 88.5424 172.939C88.7431 173.302 89.1412 173.662 89.7365 174.017C90.1347 174.255 90.494 174.414 90.8144 174.494C91.1357 174.572 91.4105 174.576 91.6388 174.507C91.8655 174.436 92.0406 174.297 92.1642 174.088ZM95.1056 168.513L94.8417 168.356C94.6478 168.241 94.4935 168.095 94.3789 167.917C94.2652 167.737 94.2055 167.539 94.1998 167.322C94.1941 167.105 94.2579 166.884 94.3911 166.659C94.5282 166.428 94.6929 166.264 94.8849 166.166C95.0754 166.068 95.2758 166.027 95.486 166.043C95.6972 166.059 95.9006 166.124 96.0961 166.24L96.36 166.396C96.5539 166.511 96.7082 166.658 96.8228 166.836C96.9375 167.014 96.9976 167.211 97.0033 167.428C97.01 167.644 96.9458 167.865 96.8106 168.093C96.6754 168.321 96.5113 168.485 96.3182 168.584C96.1252 168.683 95.923 168.725 95.7118 168.71C95.5016 168.694 95.2995 168.628 95.1056 168.513ZM95.2197 167.719L95.4837 167.875C95.6124 167.951 95.7489 167.99 95.8931 167.992C96.0373 167.994 96.1558 167.917 96.2485 167.76C96.3422 167.602 96.3534 167.462 96.2823 167.341C96.2105 167.217 96.1094 167.116 95.9791 167.039L95.7151 166.883C95.5848 166.805 95.449 166.763 95.3076 166.757C95.1647 166.749 95.0449 166.827 94.9483 166.99C94.8576 167.143 94.8479 167.283 94.9194 167.412C94.9893 167.539 95.0894 167.641 95.2197 167.719ZM90.7335 169.359L90.4696 169.203C90.274 169.087 90.1195 168.939 90.0058 168.76C89.8921 168.58 89.8332 168.382 89.8291 168.166C89.8234 167.949 89.8872 167.728 90.0204 167.503C90.1566 167.274 90.3207 167.11 90.5128 167.013C90.7042 166.912 90.9051 166.871 91.1153 166.888C91.3256 166.904 91.5284 166.971 91.724 167.086L91.9879 167.243C92.1834 167.359 92.3385 167.506 92.4531 167.684C92.5671 167.859 92.6261 168.055 92.6302 168.271C92.6343 168.487 92.5692 168.708 92.435 168.935C92.2989 169.164 92.1351 169.329 91.9436 169.429C91.7532 169.528 91.5523 169.569 91.3411 169.554C91.1299 169.539 90.9274 169.474 90.7335 169.359ZM90.8505 168.56L91.1145 168.717C91.2448 168.794 91.3816 168.834 91.5249 168.838C91.6675 168.838 91.7851 168.761 91.8778 168.604C91.9705 168.448 91.9813 168.309 91.9102 168.188C91.8384 168.064 91.7373 167.963 91.6069 167.886L91.343 167.729C91.2127 167.652 91.0768 167.61 90.9355 167.603C90.7925 167.596 90.6733 167.672 90.5777 167.834C90.4859 167.988 90.4763 168.129 90.5487 168.256C90.6212 168.382 90.7218 168.484 90.8505 168.56ZM94.7013 171.335L91.7357 164.927L92.0978 164.316L95.0635 170.724L94.7013 171.335ZM99.961 162.628C99.7437 162.994 99.4747 163.264 99.1541 163.437C98.8335 163.611 98.4842 163.685 98.1063 163.662C97.7294 163.636 97.3471 163.509 96.9593 163.279C96.5715 163.049 96.2753 162.775 96.0706 162.455C95.8668 162.134 95.7639 161.791 95.762 161.427C95.76 161.062 95.8677 160.697 96.0849 160.33C96.3022 159.964 96.5712 159.694 96.8918 159.521C97.2124 159.347 97.562 159.274 97.9406 159.3C98.3201 159.325 98.7037 159.452 99.0915 159.682C99.4793 159.912 99.7742 160.187 99.9763 160.507C100.179 160.825 100.282 161.167 100.284 161.531C100.286 161.896 100.178 162.261 99.961 162.628ZM99.2551 162.203C99.3729 162.004 99.4169 161.805 99.3869 161.607C99.3553 161.408 99.2659 161.221 99.1188 161.045C98.9727 160.868 98.7856 160.712 98.5575 160.577C98.3277 160.441 98.1002 160.351 97.8749 160.308C97.6489 160.262 97.4409 160.273 97.2509 160.341C97.0609 160.409 96.9071 160.542 96.7892 160.741C96.6685 160.945 96.6235 161.147 96.6541 161.348C96.6857 161.547 96.7754 161.736 96.9232 161.914C97.0703 162.089 97.2587 162.245 97.4885 162.381C97.7166 162.516 97.9428 162.606 98.1672 162.651C98.3925 162.694 98.6001 162.682 98.7901 162.614C98.9794 162.543 99.1344 162.406 99.2551 162.203ZM98.7719 155.908L99.4562 156.314L98.141 158.533L97.4567 158.127L98.7719 155.908ZM101.539 159.797L97.4311 157.363C97.1786 157.213 96.9993 157.036 96.8933 156.832C96.7882 156.627 96.7468 156.411 96.769 156.184C96.7911 155.957 96.8664 155.736 96.9949 155.519C97.0856 155.366 97.1785 155.237 97.2734 155.132C97.3683 155.028 97.4425 154.953 97.4958 154.908L98.0758 155.489C98.0422 155.52 98.0028 155.56 97.9576 155.611C97.9108 155.66 97.8666 155.72 97.8251 155.79C97.7275 155.954 97.6984 156.094 97.7377 156.21C97.7763 156.323 97.8689 156.423 98.0156 156.51L102.065 158.91L101.539 159.797ZM100.309 153.314L100.994 153.72L99.6785 155.939L98.9942 155.533L100.309 153.314ZM103.077 157.203L98.9687 154.768C98.7161 154.619 98.5369 154.442 98.4309 154.238C98.3258 154.033 98.2844 153.817 98.3065 153.59C98.3287 153.363 98.404 153.141 98.5324 152.925C98.6232 152.772 98.7161 152.643 98.811 152.538C98.9059 152.434 98.9801 152.359 99.0334 152.313L99.6134 152.895C99.5798 152.926 99.5404 152.966 99.4952 153.016C99.4483 153.066 99.4042 153.125 99.3626 153.195C99.2651 153.36 99.236 153.5 99.2753 153.616C99.3139 153.729 99.4065 153.829 99.5531 153.916L103.603 156.316L103.077 157.203Z" fill="#F3E2E2"/>
<path d="M138.465 156.393C138.58 156.282 138.673 156.161 138.743 156.032C138.815 155.903 138.864 155.768 138.889 155.625C138.915 155.484 138.914 155.338 138.886 155.187C138.859 155.035 138.806 154.881 138.727 154.726C138.585 154.447 138.389 154.235 138.138 154.089C137.887 153.943 137.593 153.876 137.258 153.89C136.925 153.905 136.565 154.011 136.177 154.209C135.785 154.408 135.485 154.639 135.277 154.901C135.068 155.162 134.948 155.439 134.919 155.731C134.89 156.022 134.95 156.312 135.098 156.602C135.233 156.865 135.399 157.067 135.599 157.208C135.799 157.35 136.018 157.427 136.257 157.437C136.498 157.446 136.744 157.386 136.995 157.258L137.071 157.487L136.353 156.08L137.087 155.706L138.16 157.809L137.537 158.126C137.094 158.353 136.662 158.454 136.241 158.43C135.821 158.406 135.439 158.274 135.095 158.033C134.752 157.791 134.472 157.455 134.253 157.027C134.009 156.55 133.903 156.076 133.933 155.605C133.966 155.136 134.128 154.699 134.422 154.294C134.717 153.89 135.139 153.549 135.685 153.27C136.104 153.057 136.507 152.925 136.897 152.875C137.287 152.827 137.651 152.852 137.99 152.949C138.33 153.045 138.634 153.207 138.901 153.435C139.17 153.661 139.39 153.944 139.563 154.283C139.71 154.57 139.804 154.859 139.846 155.15C139.89 155.44 139.884 155.721 139.829 155.991C139.774 156.264 139.673 156.516 139.526 156.748C139.379 156.981 139.188 157.181 138.953 157.35L138.465 156.393ZM136.691 161.82C136.492 161.43 136.402 161.052 136.419 160.686C136.439 160.321 136.56 159.986 136.781 159.682C137.004 159.377 137.318 159.121 137.725 158.913C138.125 158.709 138.514 158.606 138.894 158.604C139.276 158.603 139.621 158.696 139.93 158.885C140.241 159.073 140.491 159.353 140.68 159.724C140.803 159.964 140.879 160.21 140.91 160.462C140.943 160.715 140.922 160.964 140.845 161.209C140.769 161.457 140.631 161.691 140.431 161.912C140.233 162.132 139.963 162.329 139.623 162.502L139.342 162.646L137.717 159.46L138.334 159.145L139.511 161.453C139.686 161.361 139.823 161.244 139.921 161.1C140.022 160.955 140.078 160.796 140.089 160.622C140.101 160.45 140.063 160.276 139.973 160.101C139.878 159.914 139.748 159.772 139.585 159.677C139.423 159.581 139.249 159.531 139.061 159.526C138.877 159.523 138.697 159.564 138.522 159.651L137.983 159.926C137.757 160.042 137.584 160.182 137.465 160.347C137.346 160.512 137.282 160.69 137.272 160.882C137.263 161.074 137.31 161.269 137.411 161.468C137.479 161.601 137.559 161.713 137.652 161.802C137.745 161.89 137.85 161.955 137.964 161.996C138.079 162.038 138.202 162.051 138.332 162.035L138.672 162.94C138.418 163.001 138.168 162.999 137.922 162.933C137.679 162.868 137.451 162.742 137.238 162.555C137.028 162.367 136.845 162.122 136.691 161.82ZM142.921 164.243L142.213 164.604L141.073 162.369L141.781 162.008L142.921 164.243ZM142.994 162.085L143.461 163.001L139.812 164.862C139.689 164.925 139.604 164.992 139.557 165.062C139.513 165.134 139.495 165.207 139.503 165.281C139.511 165.356 139.535 165.431 139.573 165.507C139.603 165.564 139.634 165.615 139.666 165.657C139.699 165.702 139.726 165.735 139.746 165.757L139.108 166.277C139.066 166.237 139.012 166.176 138.945 166.095C138.88 166.016 138.812 165.913 138.742 165.784C138.618 165.558 138.548 165.334 138.53 165.111C138.513 164.888 138.559 164.681 138.666 164.49C138.773 164.301 138.949 164.146 139.193 164.024L142.994 162.085ZM140.321 168.749L141 168.403L143.681 169.303C143.943 169.386 144.17 169.451 144.364 169.497C144.557 169.543 144.732 169.562 144.888 169.555C145.044 169.548 145.193 169.508 145.337 169.434C145.5 169.351 145.621 169.242 145.7 169.109C145.78 168.974 145.819 168.826 145.817 168.663C145.815 168.501 145.772 168.337 145.687 168.171C145.6 168.001 145.489 167.87 145.353 167.778C145.218 167.685 145.068 167.635 144.904 167.63C144.741 167.626 144.57 167.669 144.393 167.76L143.937 166.866C144.266 166.699 144.591 166.628 144.91 166.654C145.23 166.68 145.523 166.791 145.791 166.986C146.059 167.183 146.281 167.453 146.455 167.795C146.633 168.143 146.724 168.481 146.728 168.811C146.732 169.14 146.658 169.435 146.506 169.696C146.355 169.958 146.134 170.163 145.844 170.311C145.65 170.41 145.441 170.47 145.215 170.491C144.99 170.512 144.716 170.488 144.393 170.416C144.07 170.347 143.662 170.227 143.166 170.057L141.802 169.627L141.767 169.645L142.918 171.902L142.134 172.302L140.321 168.749ZM143.457 175.141C143.245 174.725 143.168 174.313 143.227 173.907C143.288 173.502 143.477 173.117 143.795 172.753C144.116 172.389 144.559 172.063 145.124 171.775C145.69 171.489 146.212 171.323 146.689 171.28C147.169 171.237 147.589 171.311 147.95 171.501C148.312 171.693 148.598 171.996 148.81 172.411C149.022 172.826 149.099 173.237 149.042 173.642C148.985 174.047 148.798 174.431 148.481 174.792C148.165 175.156 147.725 175.481 147.161 175.769C146.594 176.058 146.069 176.225 145.586 176.269C145.105 176.315 144.683 176.242 144.32 176.051C143.958 175.861 143.67 175.558 143.457 175.141ZM144.25 174.737C144.415 175.061 144.705 175.236 145.119 175.26C145.536 175.286 146.056 175.14 146.678 174.822C147.09 174.612 147.414 174.393 147.65 174.164C147.886 173.935 148.035 173.706 148.097 173.477C148.16 173.247 148.137 173.024 148.028 172.81C147.864 172.488 147.573 172.315 147.157 172.291C146.743 172.267 146.227 172.411 145.608 172.724C145.194 172.933 144.868 173.152 144.629 173.38C144.391 173.61 144.24 173.84 144.177 174.07C144.115 174.299 144.139 174.521 144.25 174.737ZM147.389 180.204L147.662 180.065C147.863 179.962 148.069 179.91 148.281 179.909C148.493 179.909 148.693 179.964 148.879 180.075C149.066 180.186 149.218 180.358 149.337 180.591C149.459 180.831 149.51 181.058 149.49 181.272C149.471 181.486 149.399 181.677 149.272 181.846C149.146 182.016 148.982 182.153 148.78 182.256L148.507 182.396C148.306 182.498 148.1 182.55 147.888 182.552C147.676 182.554 147.477 182.499 147.291 182.388C147.105 182.278 146.952 182.105 146.832 181.869C146.711 181.633 146.661 181.407 146.68 181.191C146.7 180.975 146.772 180.781 146.898 180.611C147.024 180.442 147.188 180.307 147.389 180.204ZM147.999 180.725L147.726 180.865C147.592 180.933 147.486 181.027 147.408 181.148C147.329 181.269 147.331 181.41 147.414 181.572C147.497 181.736 147.609 181.82 147.75 181.825C147.893 181.831 148.032 181.799 148.167 181.73L148.44 181.591C148.575 181.522 148.684 181.43 148.765 181.314C148.848 181.197 148.846 181.054 148.76 180.886C148.679 180.727 148.565 180.644 148.419 180.635C148.274 180.626 148.134 180.656 147.999 180.725ZM149.011 176.057L149.284 175.917C149.487 175.814 149.694 175.763 149.907 175.762C150.12 175.762 150.318 175.818 150.503 175.931C150.689 176.042 150.842 176.214 150.961 176.446C151.082 176.684 151.132 176.911 151.112 177.125C151.094 177.34 151.022 177.532 150.896 177.701C150.769 177.87 150.605 178.006 150.402 178.109L150.129 178.248C149.926 178.352 149.719 178.404 149.508 178.406C149.298 178.408 149.101 178.354 148.917 178.242C148.732 178.13 148.58 177.956 148.46 177.722C148.339 177.484 148.287 177.257 148.305 177.042C148.324 176.828 148.396 176.636 148.521 176.466C148.647 176.296 148.81 176.159 149.011 176.057ZM149.624 176.583L149.351 176.722C149.216 176.791 149.108 176.885 149.029 177.004C148.952 177.125 148.955 177.266 149.037 177.428C149.12 177.589 149.232 177.673 149.372 177.678C149.515 177.683 149.654 177.652 149.789 177.583L150.063 177.443C150.198 177.375 150.306 177.282 150.387 177.166C150.47 177.05 150.469 176.908 150.384 176.741C150.302 176.581 150.188 176.497 150.042 176.491C149.897 176.484 149.757 176.515 149.624 176.583ZM145.22 178.354L152.221 179.273L152.544 179.906L145.543 178.987L145.22 178.354ZM149.766 187.454C149.573 187.074 149.488 186.703 149.513 186.339C149.538 185.975 149.662 185.64 149.884 185.334C150.107 185.029 150.419 184.774 150.821 184.569C151.222 184.364 151.613 184.261 151.992 184.258C152.372 184.258 152.717 184.354 153.026 184.547C153.335 184.741 153.586 185.027 153.78 185.407C153.974 185.786 154.058 186.158 154.033 186.521C154.008 186.885 153.883 187.22 153.659 187.526C153.435 187.833 153.122 188.089 152.721 188.294C152.319 188.499 151.929 188.601 151.55 188.601C151.173 188.602 150.829 188.506 150.52 188.313C150.211 188.12 149.96 187.833 149.766 187.454ZM150.503 187.085C150.608 187.29 150.752 187.434 150.936 187.514C151.121 187.594 151.327 187.619 151.554 187.588C151.781 187.559 152.013 187.484 152.249 187.364C152.487 187.243 152.685 187.098 152.842 186.931C153.001 186.765 153.103 186.583 153.148 186.386C153.192 186.189 153.161 185.988 153.056 185.782C152.949 185.571 152.802 185.425 152.616 185.343C152.43 185.264 152.223 185.239 151.994 185.268C151.767 185.299 151.535 185.375 151.297 185.496C151.061 185.617 150.864 185.76 150.706 185.925C150.549 186.093 150.448 186.275 150.404 186.472C150.362 186.669 150.395 186.874 150.503 187.085ZM156.08 190.041L155.372 190.403L154.2 188.105L154.908 187.744L156.08 190.041ZM151.314 190.301L155.568 188.131C155.83 187.997 156.075 187.94 156.304 187.96C156.533 187.981 156.738 188.061 156.918 188.201C157.098 188.341 157.245 188.524 157.36 188.748C157.44 188.907 157.5 189.054 157.537 189.19C157.575 189.326 157.598 189.429 157.608 189.498L156.807 189.677C156.799 189.632 156.786 189.578 156.767 189.512C156.751 189.447 156.724 189.377 156.687 189.305C156.6 189.134 156.497 189.035 156.378 189.006C156.262 188.978 156.128 189.003 155.976 189.08L151.783 191.219L151.314 190.301ZM157.451 192.728L156.742 193.089L155.57 190.791L156.278 190.43L157.451 192.728ZM152.684 192.987L156.938 190.817C157.2 190.684 157.445 190.627 157.674 190.646C157.904 190.667 158.108 190.748 158.288 190.888C158.468 191.028 158.615 191.21 158.73 191.434C158.811 191.593 158.87 191.74 158.907 191.876C158.945 192.012 158.969 192.115 158.978 192.184L158.177 192.364C158.169 192.319 158.156 192.264 158.137 192.199C158.121 192.133 158.094 192.064 158.057 191.991C157.97 191.821 157.867 191.721 157.748 191.692C157.632 191.665 157.498 191.689 157.346 191.767L153.153 193.906L152.684 192.987Z" fill="#F3E2E2"/>
<path d="M166.815 123.735C166.853 123.578 166.866 123.427 166.856 123.28C166.849 123.133 166.817 122.992 166.762 122.858C166.709 122.726 166.63 122.603 166.525 122.49C166.421 122.376 166.294 122.274 166.144 122.186C165.875 122.027 165.595 121.953 165.305 121.964C165.014 121.975 164.731 122.076 164.455 122.267C164.182 122.457 163.935 122.74 163.713 123.115C163.489 123.493 163.36 123.849 163.323 124.182C163.287 124.515 163.335 124.812 163.466 125.074C163.598 125.335 163.804 125.548 164.084 125.714C164.339 125.864 164.588 125.945 164.831 125.958C165.077 125.971 165.303 125.917 165.51 125.798C165.718 125.676 165.894 125.494 166.037 125.251L166.224 125.405L164.864 124.601L165.284 123.892L167.316 125.093L166.96 125.695C166.707 126.123 166.396 126.44 166.029 126.645C165.661 126.851 165.267 126.943 164.847 126.924C164.429 126.903 164.012 126.77 163.598 126.525C163.137 126.253 162.793 125.91 162.566 125.496C162.342 125.082 162.246 124.626 162.277 124.127C162.31 123.628 162.483 123.114 162.795 122.586C163.034 122.181 163.305 121.854 163.607 121.603C163.91 121.354 164.231 121.18 164.569 121.08C164.909 120.979 165.252 120.953 165.599 121.002C165.947 121.05 166.285 121.17 166.613 121.364C166.89 121.528 167.124 121.721 167.316 121.945C167.508 122.166 167.653 122.406 167.752 122.664C167.851 122.924 167.901 123.191 167.902 123.466C167.902 123.741 167.848 124.013 167.74 124.281L166.815 123.735ZM168.224 129.267C167.847 129.044 167.568 128.773 167.387 128.455C167.208 128.136 167.131 127.789 167.155 127.413C167.179 127.036 167.308 126.652 167.54 126.259C167.769 125.872 168.042 125.576 168.362 125.371C168.683 125.166 169.025 125.06 169.388 125.054C169.751 125.046 170.112 125.148 170.47 125.36C170.702 125.497 170.898 125.664 171.059 125.86C171.223 126.056 171.338 126.278 171.405 126.527C171.473 126.776 171.482 127.047 171.431 127.341C171.382 127.633 171.26 127.944 171.065 128.273L170.905 128.545L167.826 126.724L168.179 126.128L170.409 127.446C170.507 127.276 170.56 127.103 170.566 126.929C170.574 126.753 170.535 126.588 170.452 126.435C170.37 126.284 170.244 126.158 170.075 126.057C169.894 125.95 169.709 125.9 169.52 125.908C169.332 125.913 169.158 125.964 168.997 126.061C168.839 126.156 168.71 126.288 168.609 126.455L168.301 126.976C168.172 127.194 168.101 127.405 168.088 127.609C168.077 127.811 168.118 127.996 168.212 128.164C168.308 128.33 168.451 128.47 168.644 128.584C168.773 128.66 168.9 128.711 169.025 128.737C169.152 128.761 169.275 128.76 169.394 128.734C169.513 128.707 169.623 128.653 169.725 128.57L170.497 129.151C170.315 129.339 170.103 129.471 169.86 129.547C169.619 129.623 169.359 129.639 169.08 129.594C168.801 129.548 168.516 129.439 168.224 129.267ZM174.783 127.976L174.378 128.661L172.219 127.384L172.623 126.699L174.783 127.976ZM173.689 126.114L174.574 126.638L172.489 130.164C172.419 130.283 172.383 130.385 172.381 130.47C172.382 130.554 172.406 130.625 172.453 130.684C172.499 130.742 172.56 130.793 172.633 130.837C172.688 130.87 172.741 130.895 172.792 130.914C172.844 130.934 172.884 130.948 172.912 130.956L172.652 131.736C172.596 131.724 172.517 131.702 172.418 131.67C172.32 131.638 172.207 131.587 172.079 131.516C171.854 131.392 171.674 131.24 171.54 131.062C171.406 130.882 171.334 130.683 171.322 130.464C171.312 130.247 171.377 130.022 171.517 129.788L173.689 126.114ZM175.001 133.174L175.389 132.519L178.135 131.842C178.401 131.772 178.627 131.705 178.815 131.64C179.003 131.575 179.161 131.498 179.289 131.408C179.417 131.319 179.521 131.205 179.603 131.066C179.697 130.908 179.741 130.752 179.736 130.597C179.731 130.44 179.685 130.294 179.596 130.158C179.507 130.022 179.383 129.906 179.223 129.812C179.058 129.714 178.894 129.663 178.729 129.659C178.566 129.652 178.413 129.691 178.272 129.774C178.131 129.859 178.011 129.986 177.91 130.158L177.046 129.647C177.234 129.329 177.47 129.096 177.754 128.947C178.038 128.798 178.345 128.734 178.676 128.756C179.008 128.778 179.339 128.887 179.67 129.083C180.006 129.281 180.264 129.519 180.444 129.795C180.624 130.07 180.72 130.359 180.731 130.66C180.744 130.963 180.667 131.254 180.501 131.535C180.391 131.722 180.246 131.885 180.067 132.024C179.888 132.162 179.643 132.288 179.332 132.401C179.023 132.515 178.613 132.633 178.104 132.754L176.722 133.122L176.701 133.156L178.883 134.446L178.435 135.204L175.001 133.174ZM181.073 136.892C180.671 136.654 180.385 136.348 180.217 135.974C180.052 135.598 180.006 135.172 180.079 134.694C180.155 134.215 180.355 133.703 180.678 133.157C181.002 132.612 181.354 132.193 181.734 131.9C182.116 131.607 182.511 131.444 182.917 131.412C183.325 131.38 183.73 131.483 184.131 131.72C184.532 131.957 184.817 132.262 184.986 132.635C185.155 133.007 185.203 133.431 185.128 133.907C185.056 134.383 184.859 134.894 184.537 135.438C184.213 135.986 183.859 136.408 183.475 136.704C183.093 137 182.698 137.165 182.289 137.198C181.881 137.232 181.476 137.13 181.073 136.892ZM181.526 136.127C181.839 136.312 182.177 136.304 182.54 136.103C182.906 135.901 183.266 135.499 183.622 134.897C183.857 134.5 184.013 134.141 184.09 133.821C184.167 133.501 184.17 133.228 184.099 133.001C184.03 132.773 183.891 132.598 183.684 132.475C183.373 132.291 183.035 132.301 182.671 132.504C182.308 132.705 181.949 133.103 181.595 133.699C181.357 134.097 181.198 134.457 181.119 134.777C181.041 135.099 181.037 135.374 181.107 135.602C181.177 135.828 181.317 136.003 181.526 136.127ZM187.105 139.062L187.261 138.798C187.376 138.604 187.522 138.449 187.7 138.334C187.879 138.22 188.078 138.16 188.295 138.154C188.511 138.149 188.732 138.212 188.957 138.345C189.189 138.482 189.354 138.646 189.451 138.838C189.55 139.029 189.591 139.229 189.575 139.439C189.56 139.65 189.494 139.854 189.379 140.05L189.223 140.314C189.108 140.508 188.962 140.662 188.784 140.777C188.606 140.892 188.408 140.952 188.192 140.958C187.976 140.965 187.754 140.901 187.526 140.766C187.298 140.631 187.134 140.467 187.035 140.274C186.935 140.081 186.893 139.879 186.908 139.668C186.925 139.458 186.99 139.256 187.105 139.062ZM187.899 139.175L187.743 139.439C187.667 139.568 187.628 139.704 187.626 139.849C187.625 139.993 187.702 140.111 187.859 140.204C188.017 140.297 188.157 140.308 188.278 140.237C188.402 140.165 188.502 140.064 188.58 139.933L188.736 139.669C188.813 139.539 188.855 139.403 188.861 139.262C188.869 139.119 188.791 138.999 188.628 138.903C188.475 138.812 188.334 138.803 188.206 138.874C188.079 138.944 187.976 139.044 187.899 139.175ZM186.253 134.691L186.409 134.426C186.525 134.231 186.673 134.076 186.852 133.962C187.032 133.848 187.23 133.789 187.445 133.785C187.662 133.779 187.883 133.842 188.108 133.975C188.338 134.111 188.502 134.275 188.6 134.467C188.7 134.658 188.742 134.859 188.726 135.07C188.709 135.28 188.643 135.483 188.527 135.678L188.371 135.942C188.256 136.138 188.109 136.293 187.931 136.408C187.756 136.522 187.56 136.582 187.344 136.586C187.128 136.59 186.907 136.526 186.68 136.392C186.45 136.256 186.285 136.092 186.185 135.901C186.086 135.71 186.044 135.51 186.059 135.298C186.074 135.087 186.139 134.885 186.253 134.691ZM187.053 134.807L186.897 135.071C186.819 135.201 186.779 135.338 186.776 135.481C186.775 135.624 186.853 135.741 187.01 135.834C187.166 135.926 187.305 135.937 187.426 135.866C187.55 135.794 187.651 135.693 187.728 135.562L187.884 135.298C187.961 135.168 188.003 135.032 188.01 134.891C188.017 134.748 187.94 134.628 187.779 134.533C187.624 134.441 187.483 134.432 187.357 134.505C187.23 134.577 187.129 134.678 187.053 134.807ZM184.283 138.661L190.687 135.688L191.298 136.049L184.894 139.022L184.283 138.661ZM192.996 143.91C192.629 143.693 192.359 143.425 192.185 143.104C192.011 142.784 191.936 142.435 191.959 142.057C191.984 141.68 192.111 141.297 192.341 140.909C192.57 140.521 192.844 140.225 193.164 140.02C193.484 139.816 193.827 139.712 194.192 139.71C194.556 139.708 194.922 139.815 195.288 140.032C195.655 140.248 195.926 140.517 196.099 140.838C196.273 141.158 196.347 141.507 196.321 141.886C196.297 142.266 196.17 142.649 195.941 143.037C195.711 143.425 195.436 143.721 195.117 143.923C194.798 144.127 194.457 144.23 194.093 144.232C193.728 144.234 193.362 144.127 192.996 143.91ZM193.42 143.204C193.619 143.322 193.817 143.365 194.016 143.335C194.215 143.303 194.402 143.214 194.577 143.066C194.754 142.92 194.91 142.733 195.044 142.504C195.18 142.274 195.27 142.047 195.313 141.821C195.358 141.595 195.347 141.387 195.279 141.198C195.211 141.008 195.077 140.854 194.878 140.736C194.675 140.616 194.472 140.571 194.271 140.602C194.072 140.634 193.884 140.724 193.706 140.872C193.531 141.019 193.376 141.208 193.24 141.437C193.105 141.666 193.015 141.892 192.97 142.116C192.927 142.342 192.94 142.549 193.008 142.739C193.079 142.929 193.216 143.083 193.42 143.204ZM199.714 142.713L199.309 143.398L197.088 142.086L197.493 141.401L199.714 142.713ZM195.828 145.485L198.258 141.374C198.407 141.122 198.584 140.942 198.787 140.836C198.992 140.731 199.209 140.689 199.435 140.711C199.662 140.733 199.884 140.808 200.101 140.936C200.254 141.027 200.383 141.119 200.488 141.214C200.592 141.309 200.667 141.383 200.713 141.436L200.132 142.017C200.101 141.983 200.061 141.944 200.01 141.899C199.961 141.852 199.901 141.808 199.831 141.766C199.666 141.669 199.526 141.64 199.411 141.68C199.297 141.718 199.198 141.811 199.111 141.958L196.715 146.01L195.828 145.485ZM202.309 144.248L201.905 144.933L199.684 143.62L200.089 142.935L202.309 144.248ZM198.424 147.02L200.854 142.909C201.003 142.656 201.18 142.477 201.383 142.37C201.588 142.265 201.804 142.224 202.031 142.245C202.258 142.267 202.48 142.342 202.697 142.471C202.85 142.561 202.979 142.654 203.084 142.749C203.188 142.843 203.263 142.918 203.309 142.971L202.728 143.551C202.697 143.518 202.657 143.479 202.606 143.433C202.557 143.387 202.497 143.343 202.427 143.301C202.262 143.204 202.122 143.175 202.007 143.214C201.893 143.253 201.793 143.346 201.707 143.492L199.311 147.545L198.424 147.02Z" fill="#F3E2E2"/>
<path d="M162.662 85.3456C162.56 85.2212 162.448 85.1185 162.325 85.0375C162.204 84.954 162.073 84.8935 161.933 84.8562C161.795 84.8182 161.649 84.8067 161.496 84.8218C161.342 84.8352 161.184 84.8746 161.023 84.9401C160.733 85.0575 160.505 85.2349 160.337 85.4724C160.17 85.7099 160.079 85.9962 160.063 86.3315C160.049 86.6642 160.124 87.0325 160.287 87.4362C160.452 87.8434 160.656 88.1623 160.899 88.3929C161.142 88.6236 161.407 88.7664 161.695 88.8213C161.982 88.8745 162.277 88.8399 162.579 88.7175C162.852 88.6065 163.068 88.4578 163.225 88.2714C163.385 88.0842 163.48 87.8721 163.51 87.6349C163.54 87.396 163.502 87.1457 163.396 86.8842L163.631 86.8288L162.167 87.4222L161.857 86.6587L164.045 85.7717L164.308 86.4194C164.495 86.881 164.559 87.3202 164.499 87.7369C164.439 88.1536 164.274 88.5229 164.004 88.8449C163.733 89.1652 163.375 89.4156 162.929 89.5964C162.432 89.7977 161.951 89.8631 161.485 89.7925C161.02 89.7193 160.598 89.5192 160.221 89.1922C159.844 88.8626 159.54 88.4135 159.31 87.8448C159.133 87.4095 159.037 86.9958 159.021 86.6038C159.007 86.211 159.063 85.85 159.189 85.521C159.315 85.1901 159.502 84.9016 159.752 84.6553C160.001 84.4073 160.301 84.2117 160.654 84.0687C160.953 83.9477 161.249 83.8788 161.542 83.862C161.835 83.8434 162.114 83.8734 162.379 83.952C162.645 84.0299 162.888 84.1523 163.107 84.319C163.326 84.4858 163.509 84.6935 163.657 84.9421L162.662 85.3456ZM167.914 87.5815C167.509 87.7459 167.124 87.8036 166.761 87.7546C166.399 87.7032 166.076 87.5542 165.792 87.3075C165.508 87.0591 165.28 86.7234 165.108 86.3004C164.939 85.8845 164.87 85.4874 164.901 85.1091C164.933 84.7285 165.056 84.3924 165.271 84.1009C165.485 83.8076 165.785 83.5827 166.171 83.4262C166.421 83.3251 166.672 83.2702 166.926 83.2612C167.181 83.2499 167.427 83.293 167.665 83.3908C167.905 83.4878 168.126 83.6454 168.329 83.8635C168.531 84.08 168.704 84.3654 168.848 84.72L168.966 85.0122L165.652 86.356L165.391 85.7135L167.792 84.7402C167.717 84.5583 167.611 84.412 167.476 84.3011C167.341 84.1885 167.187 84.1191 167.015 84.0928C166.845 84.0658 166.668 84.0893 166.486 84.1633C166.291 84.2423 166.139 84.359 166.03 84.5136C165.92 84.6664 165.855 84.8358 165.834 85.022C165.815 85.2057 165.841 85.3883 165.912 85.5698L166.14 86.1305C166.235 86.3657 166.36 86.5502 166.514 86.6838C166.668 86.8157 166.84 86.8951 167.031 86.922C167.221 86.9471 167.419 86.9177 167.626 86.8337C167.765 86.7775 167.883 86.7073 167.979 86.6232C168.075 86.5373 168.149 86.439 168.2 86.3283C168.251 86.2176 168.275 86.0967 168.271 85.9656L169.201 85.7049C169.24 85.9628 169.217 86.2116 169.13 86.4512C169.044 86.6882 168.899 86.9045 168.694 87.0999C168.488 87.2936 168.228 87.4542 167.914 87.5815ZM170.867 81.5841L171.166 82.3213L168.841 83.2637L168.542 82.5265L170.867 81.5841ZM168.723 81.325L169.676 80.9386L171.215 84.7351C171.267 84.8633 171.326 84.9537 171.393 85.0065C171.46 85.0569 171.531 85.0811 171.606 85.0794C171.681 85.0776 171.758 85.0608 171.837 85.0287C171.897 85.0045 171.949 84.9781 171.995 84.9494C172.042 84.92 172.078 84.8964 172.101 84.8787L172.564 85.5587C172.52 85.5969 172.455 85.6457 172.369 85.7052C172.284 85.764 172.175 85.8225 172.041 85.8808C171.806 85.9846 171.576 86.0358 171.353 86.0344C171.129 86.0312 170.926 85.9681 170.746 85.8452C170.567 85.7215 170.427 85.5329 170.326 85.2795L168.723 81.325ZM175.132 84.5637L174.846 83.8581L175.974 81.2642C176.079 81.0109 176.163 80.7898 176.226 80.601C176.288 80.4122 176.323 80.2399 176.329 80.084C176.335 79.9282 176.308 79.7757 176.248 79.6265C176.179 79.4563 176.081 79.3262 175.955 79.2364C175.828 79.1449 175.683 79.0931 175.521 79.0812C175.359 79.0693 175.192 79.0982 175.02 79.168C174.842 79.2398 174.702 79.3396 174.598 79.4674C174.494 79.5935 174.432 79.7381 174.413 79.9014C174.395 80.064 174.423 80.2374 174.498 80.4217L173.568 80.7985C173.43 80.4562 173.387 80.127 173.441 79.811C173.495 79.4949 173.63 79.212 173.848 78.9624C174.067 78.712 174.355 78.5146 174.711 78.3701C175.073 78.2236 175.418 78.1624 175.747 78.1865C176.075 78.2107 176.363 78.3097 176.609 78.4837C176.857 78.657 177.042 78.8946 177.165 79.1965C177.247 79.3984 177.288 79.6124 177.29 79.8385C177.292 80.0646 177.243 80.3357 177.145 80.6516C177.048 80.9668 176.893 81.3637 176.68 81.8423L176.134 83.1643L176.149 83.2011L178.497 82.2491L178.828 83.0653L175.132 84.5637ZM181.771 81.9918C181.337 82.1675 180.921 82.2087 180.521 82.1152C180.123 82.0193 179.756 81.7971 179.42 81.4487C179.086 81.0979 178.8 80.6285 178.561 80.0405C178.325 79.4518 178.205 78.9177 178.203 78.4384C178.202 77.9566 178.312 77.5442 178.532 77.2013C178.755 76.8577 179.082 76.5984 179.514 76.4234C179.945 76.2484 180.361 76.2067 180.76 76.2984C181.159 76.3901 181.525 76.6096 181.857 76.957C182.192 77.3036 182.478 77.77 182.716 78.3563C182.955 78.946 183.076 79.4836 183.078 79.9689C183.082 80.4518 182.973 80.8659 182.751 81.2112C182.531 81.5558 182.205 81.816 181.771 81.9918ZM181.437 81.1677C181.774 81.0311 181.973 80.7574 182.033 80.3467C182.094 79.9335 181.994 79.4031 181.731 78.7554C181.558 78.3272 181.367 77.9855 181.159 77.7304C180.952 77.4754 180.736 77.3072 180.513 77.2259C180.29 77.1429 180.066 77.1466 179.843 77.2369C179.508 77.3728 179.311 77.647 179.251 78.0595C179.191 78.4702 179.29 78.9971 179.549 79.6402C179.721 80.071 179.911 80.4151 180.117 80.6726C180.326 80.9295 180.542 81.0994 180.765 81.1824C180.988 81.2637 181.212 81.2588 181.437 81.1677ZM187.154 78.5127L187.039 78.2284C186.955 78.0195 186.921 77.8095 186.937 77.5984C186.955 77.3866 187.028 77.1927 187.155 77.0166C187.282 76.8405 187.466 76.7033 187.709 76.6052C187.958 76.5041 188.188 76.473 188.4 76.5117C188.611 76.5487 188.796 76.6376 188.953 76.7782C189.112 76.9182 189.234 77.0935 189.319 77.3041L189.435 77.5884C189.519 77.7973 189.553 78.0073 189.537 78.2184C189.52 78.4295 189.448 78.6231 189.321 78.7991C189.196 78.9745 189.011 79.112 188.765 79.2116C188.519 79.3112 188.29 79.342 188.076 79.304C187.862 79.2659 187.676 79.1769 187.517 79.037C187.36 78.8963 187.239 78.7216 187.154 78.5127ZM187.726 77.9498L187.842 78.2341C187.898 78.3728 187.983 78.4865 188.096 78.5753C188.21 78.6641 188.351 78.6744 188.52 78.6061C188.69 78.5371 188.784 78.4327 188.8 78.293C188.818 78.1508 188.799 78.0095 188.742 77.8691L188.627 77.5848C188.57 77.4444 188.487 77.3287 188.379 77.2377C188.27 77.1451 188.127 77.1343 187.952 77.2054C187.787 77.2723 187.694 77.3784 187.673 77.5238C187.652 77.6674 187.669 77.8094 187.726 77.9498ZM183.163 76.5381L183.048 76.2538C182.962 76.0431 182.929 75.8319 182.947 75.6201C182.965 75.4083 183.038 75.2152 183.166 75.0409C183.293 74.8648 183.477 74.7277 183.72 74.6295C183.967 74.5292 184.197 74.4984 184.409 74.5372C184.622 74.5734 184.807 74.6619 184.964 74.8026C185.121 74.9432 185.242 75.1189 185.328 75.3295L185.443 75.6138C185.528 75.8245 185.563 76.0353 185.546 76.2464C185.53 76.455 185.459 76.6465 185.331 76.8209C185.204 76.9952 185.018 77.1318 184.774 77.2307C184.527 77.331 184.296 77.3631 184.083 77.3268C183.872 77.2898 183.687 77.2013 183.528 77.0613C183.369 76.9214 183.248 76.747 183.163 76.5381ZM183.74 75.9731L183.855 76.2574C183.912 76.3978 183.997 76.5128 184.109 76.6023C184.221 76.6894 184.362 76.6987 184.531 76.6304C184.699 76.5621 184.792 76.4581 184.809 76.3184C184.827 76.1762 184.807 76.035 184.75 75.8945L184.635 75.6102C184.578 75.4698 184.496 75.3541 184.387 75.2632C184.278 75.1705 184.137 75.1593 183.963 75.2298C183.796 75.2974 183.703 75.4035 183.684 75.5481C183.665 75.6928 183.684 75.8344 183.74 75.9731ZM185.124 80.5131L186.645 73.6184L187.303 73.3515L185.782 80.2463L185.124 80.5131ZM194.582 76.7706C194.188 76.9307 193.81 76.9826 193.45 76.9262C193.09 76.8699 192.767 76.7178 192.48 76.4702C192.196 76.2218 191.969 75.8887 191.799 75.471C191.63 75.0532 191.561 74.6553 191.591 74.277C191.624 73.8981 191.749 73.5631 191.969 73.2719C192.188 72.9807 192.495 72.7551 192.89 72.595C193.285 72.4349 193.662 72.383 194.022 72.4394C194.382 72.4958 194.705 72.649 194.99 72.8992C195.277 73.1486 195.506 73.4822 195.675 73.8999C195.844 74.3176 195.912 74.7151 195.879 75.0923C195.848 75.4687 195.723 75.8026 195.504 76.0937C195.284 76.3849 194.977 76.6105 194.582 76.7706ZM194.278 76.005C194.492 75.9182 194.648 75.7868 194.744 75.6108C194.839 75.4331 194.882 75.23 194.871 75.0015C194.862 74.7722 194.807 74.5347 194.708 74.289C194.607 74.0415 194.481 73.8323 194.328 73.6614C194.175 73.488 194.003 73.3708 193.811 73.3098C193.619 73.2488 193.415 73.2617 193.201 73.3485C192.982 73.4374 192.824 73.5711 192.726 73.7495C192.631 73.9272 192.588 74.1316 192.598 74.3626C192.609 74.5911 192.664 74.8292 192.765 75.0766C192.864 75.3224 192.99 75.531 193.141 75.7027C193.294 75.8736 193.467 75.9896 193.659 76.0506C193.852 76.1091 194.059 76.0939 194.278 76.005ZM197.706 70.7038L198.005 71.441L195.614 72.4101L195.316 71.6729L197.706 70.7038ZM197.553 75.4746L195.758 71.0489C195.648 70.7769 195.612 70.5277 195.652 70.3013C195.692 70.0743 195.79 69.8772 195.945 69.7102C196.1 69.5431 196.295 69.4123 196.528 69.3176C196.693 69.2507 196.845 69.2045 196.984 69.1789C197.122 69.1533 197.227 69.1385 197.297 69.1347L197.406 69.9487C197.361 69.9528 197.305 69.9611 197.238 69.9738C197.171 69.9846 197.1 70.0054 197.025 70.036C196.847 70.1078 196.739 70.2017 196.7 70.3176C196.663 70.431 196.676 70.5667 196.74 70.7247L198.508 75.0872L197.553 75.4746ZM200.501 69.5709L200.8 70.3081L198.409 71.2772L198.11 70.54L200.501 69.5709ZM200.347 74.3417L198.553 69.916C198.443 69.6439 198.407 69.3947 198.446 69.1684C198.487 68.9414 198.585 68.7443 198.74 68.5772C198.895 68.4102 199.089 68.2793 199.323 68.1847C199.488 68.1178 199.64 68.0716 199.778 68.0459C199.917 68.0203 200.022 68.0056 200.092 68.0018L200.201 68.8158C200.155 68.8199 200.1 68.8282 200.033 68.8408C199.966 68.8517 199.895 68.8724 199.819 68.903C199.642 68.9749 199.534 69.0688 199.495 69.1846C199.457 69.2981 199.47 69.4338 199.534 69.5917L201.303 73.9543L200.347 74.3417Z" fill="#F3E2E2"/>
<path d="M138.719 57.5879C138.563 57.5484 138.412 57.5326 138.265 57.5406C138.117 57.5459 137.976 57.5752 137.842 57.6284C137.708 57.68 137.584 57.7575 137.47 57.8609C137.354 57.9633 137.251 58.0888 137.16 58.2375C136.997 58.5042 136.919 58.7828 136.926 59.0733C136.933 59.3637 137.03 59.6482 137.217 59.9267C137.404 60.2026 137.683 60.4541 138.055 60.6811C138.43 60.91 138.784 61.045 139.116 61.0859C139.448 61.1268 139.746 61.0836 140.011 60.9564C140.273 60.8282 140.489 60.625 140.659 60.347C140.813 60.0948 140.898 59.847 140.913 59.6035C140.93 59.3584 140.88 59.1315 140.763 58.9227C140.645 58.7129 140.465 58.5345 140.224 58.3874L140.38 58.203L139.557 59.5511L138.854 59.1218L140.084 57.1069L140.681 57.4711C141.106 57.7306 141.418 58.0457 141.618 58.4162C141.818 58.7868 141.905 59.1818 141.88 59.6012C141.853 60.0197 141.714 60.4343 141.463 60.8448C141.184 61.3023 140.836 61.6413 140.42 61.8619C140.002 62.0799 139.545 62.1699 139.046 62.1319C138.548 62.0913 138.036 61.9112 137.512 61.5914C137.112 61.3466 136.788 61.0714 136.542 60.7658C136.297 60.4586 136.127 60.1352 136.033 59.7957C135.936 59.4552 135.915 59.1117 135.969 58.7652C136.022 58.4178 136.147 58.0816 136.346 57.7567C136.513 57.4819 136.71 57.2503 136.936 57.0621C137.16 56.8728 137.402 56.7309 137.662 56.6365C137.922 56.5404 138.19 56.4942 138.465 56.498C138.741 56.5017 139.011 56.5595 139.278 56.6714L138.719 57.5879ZM144.27 56.2585C144.042 56.6319 143.768 56.907 143.447 57.0838C143.125 57.258 142.777 57.3305 142.402 57.3013C142.025 57.2711 141.642 57.1371 141.253 56.8992C140.87 56.6653 140.578 56.3873 140.377 56.0651C140.176 55.7404 140.075 55.3969 140.074 55.0348C140.072 54.6716 140.179 54.3122 140.397 53.9566C140.537 53.727 140.706 53.5331 140.905 53.3749C141.103 53.214 141.327 53.102 141.576 53.039C141.826 52.9743 142.098 52.9693 142.391 53.0239C142.682 53.0774 142.991 53.2039 143.317 53.4033L143.587 53.5676L141.723 56.6203L141.131 56.259L142.481 54.0477C142.312 53.9467 142.14 53.8918 141.966 53.883C141.79 53.8732 141.625 53.9089 141.471 53.9902C141.318 54.0699 141.19 54.1938 141.088 54.3619C140.978 54.5414 140.926 54.7256 140.93 54.9147C140.933 55.1028 140.981 55.2778 141.076 55.4396C141.169 55.5988 141.299 55.7301 141.464 55.8334L141.981 56.1487C142.197 56.2809 142.407 56.3548 142.611 56.3704C142.813 56.3849 142.998 56.3463 143.168 56.2543C143.335 56.1614 143.477 56.0196 143.594 55.8289C143.672 55.7012 143.725 55.5747 143.752 55.4496C143.778 55.3234 143.779 55.2006 143.754 55.0812C143.729 54.9618 143.676 54.8507 143.595 54.7477L144.187 53.9844C144.373 54.1684 144.501 54.3825 144.574 54.6267C144.646 54.8683 144.658 55.1285 144.61 55.4075C144.56 55.6855 144.447 55.9691 144.27 56.2585ZM143.073 49.6818L143.752 50.0963L142.445 52.2373L141.766 51.8228L143.073 49.6818ZM141.196 50.7494L141.732 49.8717L145.229 52.0064C145.347 52.0785 145.448 52.116 145.533 52.1189C145.617 52.1192 145.689 52.0964 145.748 52.0504C145.807 52.0044 145.859 51.9451 145.903 51.8723C145.937 51.8174 145.963 51.7648 145.983 51.7146C146.003 51.6628 146.018 51.6228 146.026 51.5946L146.803 51.8656C146.79 51.9224 146.767 52.0003 146.733 52.0994C146.7 52.197 146.647 52.3089 146.575 52.4354C146.447 52.6592 146.293 52.8369 146.112 52.9687C145.931 53.0995 145.73 53.1693 145.512 53.178C145.295 53.1851 145.07 53.1167 144.838 52.973L141.196 50.7494ZM148.274 49.5377L147.624 49.141L146.987 46.3851C146.921 46.1186 146.857 45.8909 146.795 45.702C146.732 45.5132 146.658 45.3542 146.57 45.2252C146.482 45.0963 146.37 44.9898 146.232 44.9059C146.075 44.8102 145.92 44.7638 145.765 44.7669C145.608 44.7689 145.461 44.8134 145.324 44.9004C145.186 44.9873 145.069 45.11 144.972 45.2684C144.873 45.4317 144.819 45.5955 144.812 45.7598C144.803 45.9231 144.84 46.0762 144.921 46.2191C145.004 46.3604 145.13 46.4828 145.299 46.5865L144.777 47.4424C144.462 47.2499 144.231 47.0107 144.087 46.7247C143.942 46.4387 143.882 46.1307 143.909 45.8005C143.936 45.4688 144.05 45.1388 144.25 44.8107C144.453 44.4777 144.694 44.2231 144.973 44.047C145.251 43.8708 145.541 43.7793 145.842 43.7726C146.145 43.7642 146.435 43.8449 146.713 44.0146C146.899 44.1281 147.06 44.2752 147.196 44.4559C147.332 44.6366 147.454 44.8832 147.563 45.1959C147.673 45.5069 147.784 45.9181 147.898 46.4292L148.246 47.8166L148.28 47.8373L149.601 45.6745L150.352 46.1335L148.274 49.5377ZM152.078 43.5192C151.835 43.9185 151.524 44.1995 151.148 44.3622C150.77 44.5224 150.343 44.5622 149.866 44.4819C149.389 44.399 148.879 44.1922 148.338 43.8615C147.797 43.5293 147.383 43.1712 147.096 42.7873C146.809 42.4009 146.651 42.0042 146.625 41.5973C146.599 41.1888 146.707 40.7857 146.95 40.3881C147.193 39.9904 147.502 39.7097 147.877 39.546C148.252 39.3823 148.677 39.3409 149.151 39.4219C149.626 39.5012 150.134 39.7057 150.674 40.0354C151.217 40.367 151.634 40.727 151.925 41.1155C152.215 41.5014 152.374 41.899 152.402 42.3085C152.43 42.7164 152.322 43.1199 152.078 43.5192ZM151.32 43.0558C151.509 42.7455 151.506 42.4073 151.31 42.0413C151.113 41.6728 150.717 41.3064 150.12 40.9422C149.726 40.7014 149.369 40.5403 149.051 40.4589C148.732 40.3775 148.459 40.3705 148.231 40.4379C148.002 40.5044 147.825 40.6402 147.699 40.8455C147.511 41.1543 147.516 41.4921 147.713 41.8591C147.909 42.225 148.302 42.5894 148.893 42.9523C149.288 43.1957 149.645 43.3594 149.964 43.4434C150.285 43.5258 150.559 43.5338 150.789 43.4673C151.016 43.3999 151.193 43.2627 151.32 43.0558ZM154.334 37.5193L154.072 37.3594C153.88 37.2419 153.727 37.0935 153.615 36.9139C153.504 36.7328 153.447 36.5337 153.444 36.3167C153.441 36.0997 153.508 35.8797 153.644 35.6566C153.784 35.4271 153.951 35.2648 154.144 35.1699C154.336 35.0739 154.537 35.0357 154.747 35.0552C154.958 35.073 155.16 35.1412 155.354 35.2596L155.616 35.4195C155.808 35.537 155.961 35.6854 156.073 35.865C156.185 36.0445 156.243 36.2427 156.246 36.4597C156.249 36.6751 156.182 36.896 156.044 37.1223C155.906 37.3486 155.74 37.51 155.545 37.6066C155.351 37.7032 155.148 37.7426 154.937 37.7247C154.727 37.7052 154.526 37.6367 154.334 37.5193ZM154.458 36.7266L154.72 36.8864C154.848 36.9644 154.984 37.0053 155.128 37.009C155.272 37.0127 155.392 36.9369 155.486 36.7818C155.582 36.625 155.595 36.4854 155.526 36.3631C155.456 36.2381 155.356 36.1362 155.227 36.0572L154.965 35.8973C154.835 35.8184 154.7 35.7746 154.559 35.766C154.416 35.7565 154.295 35.8325 154.197 35.9942C154.104 36.1461 154.092 36.2867 154.162 36.4158C154.23 36.544 154.329 36.6476 154.458 36.7266ZM149.951 38.3083L149.689 38.1484C149.495 38.03 149.342 37.8802 149.231 37.6991C149.12 37.5179 149.064 37.3194 149.062 37.1033C149.059 36.8863 149.126 36.6663 149.262 36.4432C149.401 36.2153 149.568 36.0539 149.761 35.9589C149.954 35.8613 150.155 35.8223 150.365 35.8418C150.575 35.8612 150.777 35.9302 150.971 36.0486L151.233 36.2085C151.427 36.327 151.58 36.4759 151.692 36.6555C151.804 36.8324 151.861 37.0288 151.862 37.2449C151.863 37.4609 151.795 37.6812 151.658 37.9059C151.519 38.1338 151.353 38.2966 151.16 38.3942C150.968 38.4901 150.767 38.5292 150.556 38.5113C150.345 38.4934 150.143 38.4258 149.951 38.3083ZM150.078 37.5107L150.34 37.6706C150.47 37.7496 150.606 37.7917 150.749 37.797C150.892 37.7998 151.01 37.7235 151.105 37.5684C151.2 37.4132 151.212 37.2744 151.143 37.1521C151.073 37.0271 150.973 36.9252 150.844 36.8462L150.582 36.6863C150.452 36.6074 150.317 36.5636 150.176 36.5551C150.033 36.5455 149.913 36.6207 149.815 36.7808C149.721 36.9343 149.71 37.0749 149.781 37.2024C149.852 37.33 149.951 37.4328 150.078 37.5107ZM153.893 40.3354L151.011 33.8896L151.381 33.2834L154.263 39.7293L153.893 40.3354ZM159.266 31.6983C159.044 32.062 158.771 32.3284 158.449 32.4974C158.126 32.6664 157.775 32.7366 157.398 32.708C157.021 32.6778 156.641 32.5453 156.256 32.3104C155.871 32.0755 155.579 31.7969 155.378 31.4748C155.179 31.151 155.08 30.8069 155.083 30.4425C155.086 30.0781 155.198 29.714 155.42 29.3503C155.643 28.9866 155.915 28.7203 156.238 28.5513C156.561 28.3823 156.911 28.3133 157.289 28.3445C157.669 28.3741 158.051 28.5063 158.435 28.7412C158.82 28.9761 159.111 29.255 159.309 29.5777C159.508 29.8989 159.606 30.2417 159.603 30.6061C159.6 30.9705 159.488 31.3346 159.266 31.6983ZM158.566 31.2641C158.686 31.0669 158.733 30.869 158.705 30.6703C158.676 30.4706 158.589 30.2822 158.445 30.105C158.301 29.9263 158.116 29.7678 157.889 29.6296C157.662 29.4904 157.435 29.3977 157.211 29.3515C156.985 29.3027 156.777 29.311 156.586 29.3764C156.395 29.4418 156.24 29.5732 156.119 29.7704C155.996 29.9724 155.948 30.1741 155.976 30.3754C156.005 30.575 156.092 30.7647 156.238 30.9445C156.383 31.1217 156.569 31.2799 156.797 31.419C157.023 31.5572 157.248 31.6502 157.472 31.6981C157.697 31.7443 157.905 31.7347 158.095 31.6693C158.286 31.6012 158.442 31.4662 158.566 31.2641ZM158.165 24.964L158.844 25.3785L157.5 27.5801L156.821 27.1656L158.165 24.964ZM160.881 28.8891L156.805 26.4005C156.555 26.2476 156.378 26.0685 156.275 25.8634C156.172 25.6567 156.134 25.44 156.159 25.2135C156.184 24.987 156.262 24.7662 156.393 24.5512C156.486 24.3993 156.581 24.2717 156.677 24.1685C156.773 24.0653 156.848 23.9914 156.902 23.9466L157.475 24.5357C157.441 24.566 157.401 24.606 157.355 24.6556C157.307 24.7043 157.262 24.7634 157.22 24.8329C157.12 24.9962 157.089 25.1359 157.127 25.2522C157.164 25.3658 157.256 25.4671 157.401 25.5559L161.419 28.009L160.881 28.8891ZM159.737 22.3902L160.416 22.8047L159.071 25.0063L158.392 24.5918L159.737 22.3902ZM162.453 26.3153L158.377 23.8267C158.126 23.6738 157.949 23.4947 157.846 23.2896C157.744 23.0829 157.705 22.8662 157.73 22.6397C157.755 22.4132 157.834 22.1924 157.965 21.9774C158.058 21.8255 158.152 21.6979 158.248 21.5947C158.345 21.4915 158.42 21.4176 158.474 21.3728L159.046 21.9619C159.012 21.9922 158.972 22.0322 158.926 22.0818C158.879 22.1305 158.834 22.1896 158.791 22.2591C158.692 22.4224 158.661 22.5621 158.699 22.6784C158.736 22.792 158.827 22.8933 158.973 22.9821L162.99 25.4352L162.453 26.3153Z" fill="#F3E2E2"/>
<defs>
<linearGradient id="paint0_linear_25_337" x1="154.531" y1="2.98332" x2="137.694" y2="84.6447" gradientUnits="userSpaceOnUse">
<stop stop-color="#37489F"/>
<stop offset="1" stop-color="#A82424" stop-opacity="0.3"/>
</linearGradient>
<linearGradient id="paint1_linear_25_337" x1="216.5" y1="56.5" x2="145.5" y2="104" gradientUnits="userSpaceOnUse">
<stop stop-color="#37489F"/>
<stop offset="1" stop-color="#A82424" stop-opacity="0.3"/>
</linearGradient>
<linearGradient id="paint2_linear_25_337" x1="223.755" y1="140.427" x2="141.553" y2="126.468" gradientUnits="userSpaceOnUse">
<stop stop-color="#37489F"/>
<stop offset="1" stop-color="#A82424" stop-opacity="0.3"/>
</linearGradient>
<linearGradient id="paint3_linear_25_337" x1="165.793" y1="206.795" x2="121.331" y2="138.737" gradientUnits="userSpaceOnUse">
<stop stop-color="#37489F"/>
<stop offset="1" stop-color="#A82424" stop-opacity="0.3"/>
</linearGradient>
<linearGradient id="paint4_linear_25_337" x1="82.5987" y1="3.05031" x2="98.9007" y2="83.4583" gradientUnits="userSpaceOnUse">
<stop stop-color="#37489F"/>
<stop offset="1" stop-color="#A82424" stop-opacity="0.3"/>
</linearGradient>
<linearGradient id="paint5_linear_25_337" x1="21.0228" y1="56.4063" x2="88.0666" y2="102.454" gradientUnits="userSpaceOnUse">
<stop stop-color="#37489F"/>
<stop offset="1" stop-color="#A82424" stop-opacity="0.3"/>
</linearGradient>
<linearGradient id="paint6_linear_25_337" x1="13.4753" y1="140.431" x2="93.7758" y2="127.202" gradientUnits="userSpaceOnUse">
<stop stop-color="#37489F"/>
<stop offset="1" stop-color="#A82424" stop-opacity="0.3"/>
</linearGradient>
<linearGradient id="paint7_linear_25_337" x1="67.4617" y1="206.372" x2="116.794" y2="136.271" gradientUnits="userSpaceOnUse">
<stop stop-color="#37489F"/>
<stop offset="1" stop-color="#A82424" stop-opacity="0.3"/>
</linearGradient>
<linearGradient id="paint8_linear_25_337" x1="116.985" y1="61.0989" x2="97.324" y2="161.111" gradientUnits="userSpaceOnUse">
<stop stop-color="#37489F"/>
<stop offset="1" stop-color="#A82424" stop-opacity="0.3"/>
</linearGradient>
</defs>
</svg>
