<svg width="24" height="24" viewBox="0 0 24 24" fill="none" xmlns="http://www.w3.org/2000/svg">
<path d="M11 13C11.447 13 11.887 13.024 12.316 13.07C12.4878 13.0884 12.6518 13.151 12.7922 13.2517C12.9326 13.3524 13.0445 13.4878 13.117 13.6446C13.1895 13.8014 13.2202 13.9743 13.206 14.1465C13.1918 14.3186 13.1332 14.4842 13.036 14.627C12.3586 15.6212 11.9975 16.7969 12 18C12 18.92 12.207 19.79 12.575 20.567C12.6423 20.7087 12.6753 20.8642 12.6713 21.0209C12.6674 21.1777 12.6267 21.3314 12.5524 21.4695C12.4781 21.6076 12.3724 21.7263 12.2438 21.816C12.1152 21.9058 11.9673 21.964 11.812 21.986L11.685 21.996L11 22C8.771 22 6.665 21.86 5.087 21.442C4.302 21.234 3.563 20.936 3.003 20.486C2.41 20.01 2 19.345 2 18.5C2 17.713 2.358 16.977 2.844 16.361C3.338 15.736 4.021 15.161 4.822 14.671C6.425 13.695 8.605 13 11 13ZM18 13C19.0609 13 20.0783 13.4214 20.8284 14.1716C21.5786 14.9217 22 15.9391 22 17C22 18.387 21.245 19.48 20.531 20.21C20.085 20.666 19.611 21.027 19.23 21.283L18.847 21.527L18.655 21.64C18.4552 21.7531 18.2296 21.8125 18 21.8125C17.7704 21.8125 17.5448 21.7531 17.345 21.64L17.153 21.527L16.908 21.375C16.508 21.115 15.97 20.723 15.468 20.21C14.756 19.48 14 18.387 14 17C14 15.9391 14.4214 14.9217 15.1716 14.1716C15.9217 13.4214 16.9391 13 18 13ZM18 16C17.7348 16 17.4804 16.1054 17.2929 16.2929C17.1054 16.4804 17 16.7348 17 17C17 17.2652 17.1054 17.5196 17.2929 17.7071C17.4804 17.8946 17.7348 18 18 18C18.2652 18 18.5196 17.8946 18.7071 17.7071C18.8946 17.5196 19 17.2652 19 17C19 16.7348 18.8946 16.4804 18.7071 16.2929C18.5196 16.1054 18.2652 16 18 16ZM11 2C12.3261 2 13.5979 2.52678 14.5355 3.46447C15.4732 4.40215 16 5.67392 16 7C16 8.32608 15.4732 9.59785 14.5355 10.5355C13.5979 11.4732 12.3261 12 11 12C9.67392 12 8.40215 11.4732 7.46447 10.5355C6.52678 9.59785 6 8.32608 6 7C6 5.67392 6.52678 4.40215 7.46447 3.46447C8.40215 2.52678 9.67392 2 11 2Z" fill="#4F4F4F"/>
</svg>
