<?xml version="1.0" ?>
<!-- Uploaded to: SVG Repo, www.svgrepo.com, Generator: SVG Repo Mixer Tools -->
<svg width="800px" height="800px" viewBox="0 0 20 20" version="1.1" xmlns="http://www.w3.org/2000/svg">
<g id="layer1">
<path d="M 9.5 0 C 8.1252105 0 7 1.1252105 7 2.5 C 7 3.0633617 7.1940199 3.5807403 7.5117188 4 L 7.5 4 C 6.1252115 4 5 5.12521 5 6.5 L 5 8.5 C 5 9.702941 5.8636264 10.715051 7 10.949219 L 7 15.5 C 7 16.328427 7.6715729 17 8.5 17 L 9.5 17 L 10.5 17 C 11.328427 17 12 16.328427 12 15.5 L 12 10.949219 C 13.136373 10.715051 14 9.702941 14 8.5 L 14 6.5 C 14 5.12521 12.874788 4 11.5 4 L 11.488281 4 C 11.80598 3.5807403 12 3.0633617 12 2.5 C 12 1.1252105 10.874789 0 9.5 0 z M 9.5 1 C 10.334349 1 11 1.6656505 11 2.5 C 11 2.8417718 10.877875 3.1436236 10.71875 3.3574219 C 10.559621 3.5712202 10.488843 3.7827376 10.488281 4 C 10.488281 4.5522847 10.935996 5 11.488281 5 L 11.5 5 C 12.334349 5 13 5.66565 13 6.5 L 13 8.5 C 13 9.157682 12.583803 9.7055144 12 9.9101562 L 12 7 C 12 6.7238576 11.776142 6.5 11.5 6.5 C 11.223857 6.5 11 6.7238576 11 7 L 11 15.5 C 11 15.776142 10.776142 16 10.5 16 L 10 16 L 10 11.5 C 10 11.223858 9.7761417 11 9.5 11 C 9.2238576 11 9 11.223858 9 11.5 L 9 16 L 8.5 16 C 8.2238576 16 8 15.776142 8 15.5 L 8 7 C 8 6.7238576 7.7761424 6.5 7.5 6.5 C 7.2238576 6.5 7 6.7238576 7 7 L 7 9.9101562 C 6.4161964 9.7055145 6 9.157682 6 8.5 L 6 6.5 C 6 5.66565 6.6656505 5 7.5 5 L 7.5117188 5 C 8.0640035 5 8.5117188 4.5522847 8.5117188 4 C 8.511156 3.7827376 8.4403749 3.5712202 8.28125 3.3574219 C 8.1221251 3.1436236 8 2.8417718 8 2.5 C 8 1.6656505 8.6656505 1 9.5 1 z M 6 12.271484 C 4.8575366 12.454801 3.820836 12.723248 2.9433594 13.066406 C 2.0885214 13.400711 1.3787964 13.800992 0.859375 14.28125 C 0.33995359 14.761508 0 15.350706 0 16 C 0 16.649294 0.33995359 17.238492 0.859375 17.71875 C 1.3787964 18.199008 2.0885214 18.599289 2.9433594 18.933594 C 4.6530352 19.602203 6.9563757 20 9.5 20 C 12.043624 20 14.346965 19.602203 16.056641 18.933594 C 16.911479 18.599289 17.621204 18.199008 18.140625 17.71875 C 18.660046 17.238492 19 16.649294 19 16 C 19 15.350706 18.660046 14.761508 18.140625 14.28125 C 17.621204 13.800992 16.911479 13.400711 16.056641 13.066406 C 15.179164 12.723248 14.142464 12.454801 13 12.271484 L 13 13.220703 C 14.027811 13.394447 14.952974 13.638789 15.716797 13.9375 C 16.496483 14.242415 17.111163 14.603813 17.505859 14.96875 C 17.900556 15.333687 18.064453 15.673878 18.064453 16 C 18.064453 16.326122 17.900556 16.666313 17.505859 17.03125 C 17.111163 17.396187 16.496483 17.757585 15.716797 18.0625 C 14.157426 18.672329 11.944774 19.064453 9.5 19.064453 C 7.0552265 19.064453 4.8425745 18.672329 3.2832031 18.0625 C 2.5035175 17.757585 1.888837 17.396187 1.4941406 17.03125 C 1.0994442 16.666313 0.93554688 16.326122 0.93554688 16 C 0.93554688 15.673878 1.0994442 15.333687 1.4941406 14.96875 C 1.888837 14.603813 2.5035175 14.242415 3.2832031 13.9375 C 4.0470264 13.638789 4.9721887 13.394447 6 13.220703 L 6 12.271484 z " style="fill:#222222; fill-opacity:1; stroke:none; stroke-width:0px;"/>
</g>
</svg>